<svg xmlns="http://www.w3.org/2000/svg" width="500" height="500" viewBox="0 0 500 500" version="1.1"><path d="M 0 50.837 L 0 101.688 28.750 94.787 C 44.563 90.992, 105.875 76.182, 165 61.876 C 224.125 47.571, 305.350 28.012, 345.500 18.412 C 385.650 8.813, 418.950 0.772, 419.500 0.543 C 420.050 0.315, 390.575 0.312, 354 0.537 C 317.425 0.762, 284.350 0.936, 280.500 0.925 C 276.650 0.913, 211.963 0.697, 136.750 0.445 L 0 -0.014 0 50.837 M 427.891 5.250 C 432.448 13.476, 484.592 114.293, 485.302 116.250 C 486.416 119.320, 484.917 120.969, 479.642 122.478 C 476.814 123.286, 432.425 134.056, 381 146.410 C 329.575 158.764, 253.975 176.966, 213 186.859 C 172.025 196.752, 108.125 212.108, 71 220.984 C 33.875 229.861, 2.712 237.350, 1.750 237.629 C 0.197 238.078, 0 239.627, 0 251.416 L 0 264.696 5.750 263.802 C 8.912 263.311, 12.248 262.500, 13.163 262 C 14.077 261.501, 17.227 260.778, 20.163 260.395 C 23.098 260.011, 27.933 258.865, 30.907 257.849 C 33.880 256.832, 37.414 256, 38.760 256 C 40.106 256, 44.873 254.913, 49.354 253.585 C 57.547 251.156, 68.078 248.485, 75.500 246.953 C 77.700 246.499, 82.200 245.388, 85.500 244.484 C 88.800 243.580, 93.679 242.447, 96.343 241.966 C 99.006 241.485, 101.799 240.582, 102.549 239.960 C 103.299 239.337, 104.411 239.136, 105.020 239.512 C 105.629 239.888, 108.686 239.301, 111.813 238.206 C 114.941 237.111, 124.700 234.537, 133.500 232.485 C 142.300 230.434, 156.475 226.961, 165 224.768 C 185.231 219.565, 191.438 218.059, 197.500 216.883 C 200.250 216.349, 204.300 215.507, 206.500 215.011 C 208.700 214.515, 212.300 213.714, 214.500 213.230 C 216.700 212.746, 219.489 211.818, 220.698 211.167 C 221.908 210.517, 224.960 209.776, 227.481 209.521 C 230.003 209.266, 233.963 208.421, 236.283 207.644 C 238.602 206.867, 243.875 205.705, 248 205.062 C 252.125 204.419, 257.075 203.284, 259 202.541 C 263.823 200.677, 272.172 198.324, 280.500 196.482 C 284.350 195.631, 292 193.853, 297.500 192.532 C 303 191.210, 308.625 189.917, 310 189.657 C 314.036 188.895, 324.984 186.058, 332.088 183.933 C 335.711 182.849, 341.336 181.458, 344.588 180.841 C 347.839 180.224, 355.675 178.386, 362 176.757 C 368.325 175.128, 375.443 173.399, 377.817 172.915 C 380.191 172.431, 382.666 171.693, 383.317 171.274 C 383.968 170.856, 385.400 170.451, 386.500 170.374 C 388.711 170.220, 399.735 167.662, 407.500 165.502 C 421.656 161.563, 440.073 157.052, 444.500 156.438 C 447.250 156.057, 449.942 155.486, 450.482 155.170 C 451.023 154.854, 452.148 154.481, 452.982 154.341 C 453.817 154.202, 458.325 153.168, 463 152.043 C 467.675 150.917, 474.636 149.296, 478.469 148.440 C 482.301 147.583, 485.901 146.498, 486.469 146.029 C 487.036 145.560, 488.625 145.179, 490 145.183 C 491.375 145.186, 494.188 144.586, 496.250 143.850 L 500 142.511 500 71.255 L 500 0 462.491 0 L 424.983 0 427.891 5.250 M 492 151.538 C 481.731 154.091, 466.507 157.260, 464.817 157.197 C 463.891 157.163, 462.598 157.779, 461.944 158.567 C 461.290 159.355, 459.490 160, 457.943 160 C 456.396 160, 453.863 160.519, 452.315 161.152 C 449.897 162.142, 444.026 163.312, 436.500 164.303 C 434.724 164.537, 426.037 167.188, 422 168.727 C 421.175 169.042, 419.375 169.397, 418 169.516 C 416.625 169.634, 412.575 170.656, 409 171.785 C 405.425 172.914, 399.800 174.345, 396.500 174.964 C 393.200 175.583, 388.700 176.701, 386.500 177.449 C 382.877 178.679, 377.908 179.754, 372.500 180.476 C 371.400 180.623, 369.825 180.994, 369 181.301 C 367.314 181.928, 355.843 185.171, 349 186.956 C 346.525 187.602, 343.210 188.089, 341.632 188.040 C 340.055 187.991, 338.113 188.491, 337.317 189.152 C 336.521 189.812, 334.887 190.466, 333.685 190.604 C 332.483 190.743, 329.700 191.293, 327.500 191.828 C 325.300 192.363, 319.225 193.731, 314 194.869 C 308.775 196.006, 302.250 197.642, 299.500 198.504 C 296.750 199.366, 290.929 200.724, 286.564 201.522 C 282.199 202.319, 278.172 203.428, 277.614 203.986 C 277.056 204.544, 275.397 205, 273.926 205 C 272.455 205, 269.338 205.675, 267 206.500 C 264.662 207.325, 261.545 208, 260.074 208 C 258.603 208, 256.954 208.446, 256.409 208.991 C 255.864 209.536, 253.411 210.400, 250.959 210.910 C 248.506 211.420, 242.900 212.581, 238.500 213.489 C 234.100 214.398, 229.825 215.397, 229 215.710 C 228.175 216.022, 226.825 216.411, 226 216.575 C 219.675 217.827, 197.912 223.020, 195.500 223.852 C 193.850 224.421, 184.400 226.755, 174.500 229.039 C 164.600 231.323, 154.025 234, 151 234.988 C 147.975 235.977, 143.295 237.059, 140.601 237.394 C 137.906 237.729, 135.206 238.380, 134.601 238.840 C 133.995 239.301, 130.125 240.252, 126 240.954 C 121.875 241.655, 117.082 242.853, 115.349 243.615 C 113.616 244.377, 110.916 245.003, 109.349 245.006 C 107.782 245.010, 105.211 245.685, 103.636 246.506 C 102.060 247.328, 99.765 248, 98.535 248 C 97.305 248, 94.994 248.450, 93.399 249.001 C 91.805 249.551, 89.150 250.149, 87.500 250.330 C 85.850 250.510, 83.825 250.935, 83 251.274 C 82.175 251.614, 77 253.010, 71.500 254.378 C 66 255.745, 56.135 258.229, 49.578 259.897 C 43.021 261.564, 35.596 263.228, 33.078 263.594 C 30.560 263.960, 27.375 264.815, 26 265.493 C 24.625 266.171, 22.979 266.539, 22.343 266.310 C 21.707 266.082, 19.514 266.594, 17.471 267.448 C 15.428 268.301, 12.692 269, 11.392 269 C 10.092 269, 6.997 269.543, 4.514 270.207 L 0 271.415 0.047 297.957 L 0.093 324.500 2.656 319.500 C 7.206 310.621, 12.536 306.514, 24.500 302.670 C 36.166 298.922, 106.070 282, 109.889 282 C 120.217 282, 124.588 286.683, 135.559 309.500 C 149.779 339.077, 151.290 344.769, 146.837 352 C 145.651 353.925, 144.317 357.412, 143.871 359.750 C 142.798 365.374, 139.778 369.266, 134.132 372.299 C 126.620 376.333, 52.155 396.729, 41.387 397.700 C 29.053 398.813, 20.444 393.356, 15.424 381.242 C 8.667 364.934, 0.778 346.466, 0.406 346.083 C 0.182 345.854, -0 380.392, -0 422.833 L 0 500 51.067 500 L 102.133 500 105.430 497.485 C 110.849 493.352, 119.091 490.569, 148 483.111 C 163.125 479.210, 181.575 474.418, 189 472.463 C 203.608 468.617, 207.238 468.550, 213.997 471.999 C 219.086 474.595, 221.288 477.595, 227.024 489.750 C 230.865 497.890, 232.287 500, 233.930 500 C 236.408 500, 236.371 500.446, 234.371 494.576 C 232.298 488.492, 232.964 478.761, 235.861 472.814 C 238.663 467.063, 246.510 459.130, 251.672 456.832 C 253.967 455.811, 268.566 451.590, 284.114 447.452 C 343.144 431.743, 344.202 431.546, 351.541 434.880 C 357.280 437.486, 360.206 441.442, 368.197 457.393 C 378.452 477.865, 382.950 488.723, 383.653 494.709 C 384.265 499.916, 384.328 500, 387.613 500 C 391.579 500, 392.468 502.982, 380.008 474.500 C 371.437 454.907, 370.847 453.131, 371.214 448 C 371.741 440.622, 376.083 431.428, 381.298 426.650 C 388.934 419.654, 389.233 419.555, 449.972 403.881 C 472.150 398.158, 478.511 396.869, 482.987 397.193 C 489.592 397.670, 494.041 400.535, 497.609 406.608 L 500.023 410.715 499.762 450.504 L 499.500 490.293 487 493.985 C 480.125 496.017, 472.925 498.155, 471 498.737 L 467.500 499.796 472 499.892 C 474.475 499.944, 481.225 498.653, 487 497.023 C 492.775 495.392, 498.033 494.045, 498.684 494.029 C 499.335 494.013, 500.055 495.238, 500.284 496.750 C 500.513 498.262, 500.666 464.625, 500.623 422 C 500.581 379.375, 500.413 353.163, 500.251 363.750 L 499.957 383 497.228 382.976 C 491.508 382.926, 486.657 381.070, 483.057 377.556 C 478.994 373.589, 465.790 348.847, 459.082 332.634 C 453.887 320.078, 453.776 315.971, 458.376 306.472 C 462.372 298.218, 465.424 295.247, 473.500 291.745 C 479.063 289.333, 496.569 284, 498.925 284 C 499.591 284, 500.062 291.019, 500.251 303.750 C 500.477 318.933, 500.557 317.257, 500.598 296.500 C 500.627 281.650, 500.479 271.402, 500.269 273.727 C 499.915 277.643, 499.616 278.026, 496.194 278.944 C 450.924 291.084, 448.582 291.461, 440.333 287.933 C 433.665 285.080, 431.213 282.563, 427.607 274.869 L 424.500 268.238 424.408 272.443 C 424.358 274.755, 423.390 278.639, 422.258 281.074 C 421.126 283.508, 419.687 287.413, 419.060 289.750 C 418.410 292.173, 416.325 295.669, 414.210 297.882 C 409.638 302.667, 404.923 304.245, 357 317.035 C 318.983 327.181, 313.693 327.925, 306.313 324.159 C 299.345 320.605, 295.944 315.388, 286.512 293.786 C 275.851 269.367, 274.738 265.656, 276.031 258.836 C 278.108 247.883, 284.135 240.056, 294.637 234.673 C 299.052 232.410, 381.154 211.995, 385.732 212.022 C 387.804 212.034, 391.383 212.899, 393.684 213.943 C 398.071 215.935, 399.601 217.901, 406.954 231 C 409.270 235.125, 410.856 237.600, 410.478 236.500 C 408.178 229.799, 408.016 228.249, 409.116 223.500 C 410.423 217.855, 414.071 210.036, 417.582 205.356 C 421.215 200.512, 431.067 197.049, 466.690 188.093 C 484.394 183.642, 499.132 180, 499.440 180 C 499.748 180, 500 173.250, 500 165 C 500 153.621, 499.698 150.021, 498.750 150.085 C 498.063 150.132, 495.025 150.785, 492 151.538 M 235.500 248.947 C 231.650 249.957, 213.200 254.691, 194.500 259.467 C 175.800 264.243, 158.612 268.981, 156.304 269.996 C 147.301 273.953, 138.578 286.326, 137.323 296.918 C 136.802 301.322, 137.458 303.397, 144.976 321.118 C 155.860 346.772, 158.781 353.094, 160.807 355.376 C 163.788 358.734, 172.089 361.980, 177.724 361.990 C 183.645 362.001, 263.913 341.053, 270.291 337.832 C 275.887 335.006, 281.616 328.591, 285.142 321.202 C 290.529 309.915, 288.922 303.767, 271.484 268.969 C 267.923 261.861, 263.472 254.539, 261.538 252.605 C 255.696 246.762, 247.965 245.676, 235.500 248.947 M 0.438 297.500 C 0.437 312.350, 0.576 318.564, 0.747 311.310 C 0.918 304.055, 0.918 291.905, 0.748 284.310 C 0.578 276.714, 0.438 282.650, 0.438 297.500 M 384 313.422 C 340.136 325.385, 337.431 326.241, 332.036 329.864 C 324.307 335.055, 319 345.781, 319 356.211 C 319 362.111, 319.563 363.535, 331.087 386.756 C 344.575 413.937, 346.131 415.847, 356.539 418.008 C 361.612 419.061, 362.894 418.860, 378.216 414.609 C 387.172 412.123, 405.868 407.163, 419.763 403.586 C 433.657 400.009, 447.157 396.140, 449.763 394.988 C 457.571 391.535, 463 385.187, 463 379.509 C 463 378.085, 463.963 375.616, 465.141 374.024 C 468.895 368.945, 468.747 362.666, 464.644 352.954 C 453.284 326.068, 447.835 314.166, 445.605 311.371 C 441.764 306.558, 433.742 302.980, 427.054 303.098 C 423.368 303.162, 408.886 306.636, 384 313.422 M 286.500 338.728 C 284.850 338.934, 273.375 341.819, 261 345.137 C 195.930 362.587, 196.573 362.375, 190.512 368.435 C 185.175 373.772, 180.897 382.526, 180.114 389.710 L 179.500 395.344 177.239 390.328 C 174.113 383.393, 168.737 378.296, 162.637 376.485 C 156.109 374.546, 154.393 374.603, 144.667 377.079 C 122.234 382.789, 67.013 398.078, 63.517 399.548 C 58.031 401.853, 55.730 403.831, 50.614 410.636 C 45.123 417.941, 42.501 425.468, 43.424 431.276 C 44.081 435.410, 55.300 460.898, 63.208 476.220 C 70.096 489.568, 77.907 494.389, 89 492.140 C 100.457 489.816, 175.305 469.894, 178.200 468.397 C 183.856 465.472, 189.663 459.140, 192.553 452.747 C 196.689 443.599, 196.457 436.279, 191.660 424.556 C 189.647 419.636, 188.002 415.361, 188.004 415.056 C 188.007 414.750, 191.338 421.276, 195.408 429.558 C 203.705 446.444, 206.615 450.466, 212.459 453.120 C 218.158 455.709, 221.686 455.474, 237.005 451.488 C 244.427 449.557, 263.775 444.565, 280 440.394 C 297.574 435.877, 311.448 431.760, 314.319 430.209 C 324.203 424.872, 330.441 414.175, 330.478 402.500 C 330.497 396.560, 329.877 393.985, 326.389 385.500 C 317.760 364.511, 309.521 347.587, 306.423 344.490 C 302.512 340.579, 293.204 337.887, 286.500 338.728 M 0.476 423 C 0.476 465.625, 0.599 483.063, 0.750 461.750 C 0.900 440.438, 0.900 405.563, 0.750 384.250 C 0.599 362.938, 0.476 380.375, 0.476 423" stroke="none" fill="#9dd6d8" fill-rule="evenodd"/><path d="M 273.500 1 C 276.049 2.095, 282.358 2.121, 287.500 1.057 C 290.665 0.403, 289.413 0.221, 281.500 0.185 C 275.076 0.157, 272.215 0.448, 273.500 1 M 413.500 2.127 C 409.650 3.160, 380.850 10.111, 349.500 17.574 C 318.150 25.037, 235.800 44.862, 166.500 61.629 C 97.200 78.397, 31.500 94.247, 20.500 96.851 L 0.500 101.586 0.243 169.863 C -0.001 234.588, 0.077 238.112, 1.743 237.626 C 3.449 237.127, 54.302 224.882, 102 213.485 C 114.925 210.397, 176.800 195.496, 239.500 180.373 C 302.200 165.249, 382.499 145.912, 417.942 137.401 C 453.385 128.890, 482.972 121.438, 483.692 120.841 C 484.411 120.244, 485 118.720, 485 117.455 C 485 115.562, 448.795 44.550, 429.832 9.250 C 424.218 -1.201, 424.860 -0.921, 413.500 2.127 M 390.655 25.829 C 389.745 26.835, 389 28.165, 389 28.786 C 389 29.406, 392.613 37.207, 397.029 46.120 C 401.445 55.033, 404.895 62.815, 404.697 63.413 C 404.498 64.011, 400.773 65.302, 396.418 66.281 C 392.063 67.261, 386.700 68.518, 384.500 69.074 C 382.300 69.630, 378.421 70.343, 375.880 70.657 C 370.396 71.337, 369.560 70.478, 369.399 64 C 369.338 61.525, 368.931 54.447, 368.495 48.270 C 367.867 39.374, 367.326 36.700, 365.889 35.399 C 361.692 31.601, 359.762 36.494, 361.311 47 C 361.757 50.025, 362.330 54.975, 362.584 58 C 363.928 74.024, 364.341 76.628, 365.801 78.285 C 366.690 79.294, 368.054 79.807, 368.937 79.464 C 370.924 78.693, 378.875 76.930, 381.500 76.679 C 382.600 76.573, 383.960 76.189, 384.521 75.826 C 385.083 75.462, 387.558 74.882, 390.021 74.536 C 392.485 74.189, 395.850 73.509, 397.500 73.023 C 399.150 72.537, 402.403 71.845, 404.728 71.486 L 408.956 70.832 412.542 78.666 C 414.515 82.975, 416.540 87.175, 417.044 88 C 419.033 91.256, 422.985 100.097, 423.626 102.723 C 424.490 106.262, 431.026 115, 432.809 115 C 433.254 115, 434.485 114.366, 435.546 113.590 C 437.328 112.287, 437.352 112.042, 435.863 110.340 C 434.977 109.328, 433.723 106.848, 433.075 104.830 C 432.428 102.811, 431.246 100.619, 430.449 99.958 C 429.652 99.296, 429.004 98.248, 429.008 97.628 C 429.016 96.595, 422.010 81.511, 419.892 78 C 418.716 76.051, 404.595 47.131, 401.337 40 C 399.954 36.975, 398.398 33.825, 397.878 33 C 397.358 32.175, 396.204 29.813, 395.314 27.750 C 393.475 23.487, 392.965 23.276, 390.655 25.829 M 319.757 43.364 C 311.245 48.598, 306.266 55.036, 303.178 64.802 C 302.224 67.819, 302.346 68.200, 304.584 69.220 C 306.635 70.155, 307.270 70.024, 308.485 68.418 C 309.283 67.363, 309.951 65.865, 309.968 65.088 C 309.986 64.311, 311.078 61.836, 312.396 59.588 C 318.102 49.853, 329.596 45.111, 335.310 50.133 C 339.785 54.066, 339.645 66.709, 335.065 72.228 C 324.489 84.969, 319.422 92.351, 319.876 94.355 C 319.983 94.826, 319.624 95.748, 319.079 96.405 C 317.495 98.313, 316.627 105.651, 317.892 106.433 C 318.502 106.810, 319.010 108.779, 319.022 110.809 C 319.034 112.839, 319.916 116.422, 320.982 118.771 C 322.049 121.120, 322.693 123.636, 322.415 124.361 C 322.137 125.086, 322.604 126.257, 323.454 126.962 C 324.305 127.668, 325 129.090, 325 130.122 C 325 131.155, 325.450 132, 326 132 C 326.550 132, 327.003 133.012, 327.007 134.250 C 327.011 135.682, 328.245 137.339, 330.402 138.807 C 333.565 140.960, 334.021 141.018, 337.239 139.673 C 339.136 138.881, 343.551 137.900, 347.051 137.494 C 350.551 137.088, 355.909 135.940, 358.957 134.944 C 362.006 133.948, 366.379 132.961, 368.675 132.752 C 370.971 132.542, 373.558 131.782, 374.425 131.063 C 377.742 128.309, 375.023 122.855, 371.314 124.824 C 370.316 125.353, 364.100 126.770, 357.500 127.972 C 350.900 129.173, 343.803 130.796, 341.730 131.578 C 336.380 133.596, 334 133.418, 334 131 C 334 129.900, 333.622 129, 333.160 129 C 332.698 129, 331.717 127.088, 330.979 124.750 C 330.242 122.412, 328.738 118.519, 327.638 116.098 C 326.156 112.839, 325.658 109.697, 325.718 103.992 C 325.808 95.475, 327.067 92.129, 332.267 86.586 C 339.530 78.845, 341 77.081, 341 76.108 C 341 75.547, 342.353 72.794, 344.006 69.990 C 346.345 66.023, 346.789 64.474, 346.006 63.011 C 345.453 61.977, 345 58.682, 345 55.688 C 345 52.070, 344.497 49.828, 343.500 49 C 342.675 48.315, 342 47.156, 342 46.424 C 342 44.378, 333.299 40.996, 328.123 41.031 C 325.093 41.052, 322.211 41.855, 319.757 43.364 M 252.590 59.726 C 250.704 62.325, 249.376 64.800, 249.639 65.226 C 250.476 66.579, 255.276 66.060, 257.089 64.420 C 258.714 62.949, 258.983 63.174, 260.974 67.670 C 262.150 70.326, 264.257 75.875, 265.657 80 C 267.056 84.125, 268.831 88, 269.600 88.610 C 270.370 89.221, 270.999 90.121, 270.998 90.610 C 270.998 91.100, 272.974 95.775, 275.391 101 C 277.807 106.225, 280.544 112.525, 281.472 115 C 282.400 117.475, 283.897 120.850, 284.799 122.500 C 289.787 131.628, 294.849 142.435, 294.443 143.092 C 294.187 143.507, 292.679 144.131, 291.092 144.480 C 287.540 145.260, 284.552 148.389, 285.356 150.486 C 285.786 151.605, 286.741 151.878, 288.728 151.449 C 290.252 151.120, 292.175 150.830, 293 150.805 C 297.880 150.654, 315 145.612, 315 144.326 C 315 144.074, 314.506 142.945, 313.902 141.816 C 312.915 139.973, 312.202 139.832, 306.902 140.432 C 301.639 141.027, 301 140.904, 300.996 139.300 C 300.993 138.310, 299.645 135.475, 298 133 C 296.355 130.525, 295.007 127.712, 295.004 126.750 C 295.002 125.787, 294.100 124.100, 293 123 C 291.900 121.900, 291 120.100, 291 119 C 291 117.900, 290.618 117, 290.150 117 C 289.683 117, 288.053 113.963, 286.529 110.250 C 282.083 99.424, 276.707 87.623, 275.479 86 C 274.855 85.175, 273.771 82.475, 273.070 80 C 271.865 75.748, 268.889 68.654, 265.163 61.151 C 263.296 57.391, 260.429 55, 257.787 55 C 256.815 55, 254.476 57.126, 252.590 59.726 M 226.500 95.808 C 224.850 96.011, 223.039 96.558, 222.475 97.024 C 221.911 97.490, 218.986 98.183, 215.975 98.565 C 212.964 98.946, 208.974 99.879, 207.109 100.637 C 205.243 101.395, 202.318 102.205, 200.609 102.437 C 198.899 102.668, 194.842 103.790, 191.593 104.929 C 188.345 106.068, 184.389 107, 182.804 107 C 178.455 107, 172 110.635, 172 113.084 C 172 115.005, 172.434 115.094, 179.250 114.572 C 183.238 114.267, 188.975 113.102, 192 111.984 C 197.316 110.018, 210.430 106.569, 216.413 105.563 C 218.016 105.294, 219.793 104.607, 220.363 104.037 C 220.934 103.466, 222.703 103, 224.296 103 C 227.081 103, 233 100.239, 233 98.939 C 233 97.310, 229.194 95.476, 226.500 95.808 M 231 123.741 C 228.525 124.566, 225.150 125.807, 223.500 126.500 C 219.373 128.232, 197.716 133.063, 191 133.749 C 184.848 134.377, 180.308 137.462, 182.193 139.733 C 183.414 141.203, 193.154 141.458, 195.764 140.088 C 196.719 139.587, 200.200 138.643, 203.500 137.991 C 206.800 137.339, 212.200 136.127, 215.500 135.298 C 218.800 134.469, 222.475 133.725, 223.667 133.645 C 224.859 133.565, 226.171 133.162, 226.584 132.750 C 226.996 132.338, 228.389 132, 229.680 132 C 230.971 132, 232.809 131.598, 233.764 131.108 C 234.719 130.617, 236.738 129.726, 238.250 129.129 C 240.404 128.278, 241 127.388, 241 125.021 C 241 122.363, 240.670 122.014, 238.250 122.120 C 236.738 122.186, 233.475 122.916, 231 123.741 M 493.639 144.695 C 493.257 145.077, 491.719 145.519, 490.222 145.678 C 487.128 146.007, 477.221 148.448, 472 150.168 C 469.121 151.116, 461.679 152.741, 452.982 154.319 C 452.148 154.471, 451.023 154.867, 450.482 155.200 C 449.942 155.533, 447.250 156.124, 444.500 156.513 C 441.750 156.902, 432.750 158.986, 424.500 161.144 C 416.250 163.302, 406.575 165.751, 403 166.587 C 399.425 167.423, 394.173 168.770, 391.329 169.580 C 388.485 170.390, 385.785 170.962, 385.329 170.852 C 384.873 170.741, 383.375 171.121, 382 171.696 C 378.500 173.159, 350.691 180, 348.243 180 C 347.136 180, 344.040 180.652, 341.365 181.449 C 330.423 184.710, 315.684 188.462, 294 193.510 C 285.475 195.494, 275.800 197.802, 272.500 198.638 C 269.200 199.475, 265.091 200.514, 263.368 200.948 C 261.645 201.381, 259.719 202.056, 259.086 202.447 C 257.958 203.144, 240.927 206.966, 227.893 209.448 C 224.259 210.140, 220.718 211.056, 220.025 211.485 C 218.632 212.345, 213.639 213.725, 207.500 214.946 C 197.290 216.977, 187.232 219.202, 184.500 220.035 C 180.692 221.196, 159.128 226.614, 148 229.207 C 131.440 233.065, 128.446 233.773, 123.500 234.995 C 120.750 235.674, 115.688 237.105, 112.252 238.175 C 108.815 239.245, 105.533 239.829, 104.958 239.474 C 104.383 239.119, 103.221 239.402, 102.375 240.104 C 101.530 240.805, 98.737 241.697, 96.169 242.085 C 93.601 242.473, 88.125 243.707, 84 244.827 C 70.764 248.421, 59.623 251.174, 54.930 252.009 C 52.417 252.456, 48.650 253.537, 46.558 254.411 C 44.467 255.285, 41.508 256, 39.983 256 C 38.458 256, 34.351 256.869, 30.855 257.931 C 27.360 258.993, 22.250 260.175, 19.500 260.557 C 16.750 260.939, 14.050 261.589, 13.500 262 C 12.950 262.411, 10.305 263.066, 7.622 263.454 C 0.641 264.466, 0 264.867, 0 268.232 C 0 271.123, 0.137 271.219, 3.250 270.506 C 5.038 270.096, 8.527 269.460, 11.004 269.092 C 13.482 268.723, 16.165 268.016, 16.968 267.520 C 17.770 267.024, 20.243 266.266, 22.463 265.835 C 38.908 262.645, 50.264 260.004, 59.500 257.225 C 64.885 255.604, 74.649 253.201, 79.500 252.304 C 81.150 251.999, 82.950 251.396, 83.500 250.964 C 84.050 250.533, 86.525 249.953, 89 249.675 C 91.475 249.398, 94.775 248.679, 96.334 248.078 C 97.893 247.477, 99.600 247.253, 100.128 247.579 C 100.656 247.905, 101.701 247.663, 102.451 247.040 C 103.201 246.418, 105.994 245.526, 108.657 245.057 C 111.321 244.589, 114.850 243.740, 116.500 243.170 C 121.641 241.394, 142.367 236.602, 144.283 236.746 C 145.285 236.822, 147.994 236.078, 150.303 235.093 C 152.611 234.108, 156.300 232.986, 158.500 232.601 C 164.014 231.634, 190.394 225.310, 196.500 223.491 C 201.704 221.940, 223.370 216.861, 226.018 216.571 C 226.852 216.480, 227.977 216.151, 228.518 215.841 C 229.922 215.034, 234.858 213.910, 239.426 213.357 C 241.585 213.096, 244.060 212.520, 244.926 212.078 C 245.792 211.636, 248.503 210.968, 250.950 210.593 C 253.398 210.219, 255.873 209.535, 256.450 209.075 C 257.028 208.614, 259.075 207.985, 261 207.677 C 266.925 206.729, 276.540 204.315, 278.571 203.265 C 279.632 202.717, 282.975 201.963, 286 201.590 C 289.025 201.217, 295.100 199.824, 299.500 198.494 C 303.900 197.165, 312 195.151, 317.500 194.020 C 323 192.888, 328.960 191.493, 330.744 190.919 C 332.528 190.344, 334.390 190.123, 334.881 190.426 C 335.372 190.730, 336.329 190.308, 337.009 189.489 C 337.689 188.670, 339.528 188, 341.097 188 C 343.718 188, 365.531 182.816, 369 181.369 C 369.825 181.024, 371.400 180.594, 372.500 180.413 C 380.541 179.088, 384.863 178.142, 387.153 177.207 C 388.612 176.611, 392.662 175.617, 396.153 174.998 C 399.644 174.379, 405.425 172.940, 409 171.802 C 412.575 170.663, 416.625 169.634, 418 169.516 C 419.375 169.397, 421.175 169.057, 422 168.761 C 422.825 168.466, 426.129 167.273, 429.343 166.110 C 432.557 164.948, 435.585 164.243, 436.072 164.545 C 436.560 164.846, 437.804 164.640, 438.837 164.087 C 439.870 163.534, 442.467 162.987, 444.608 162.872 C 446.749 162.756, 449.715 162.063, 451.200 161.331 C 452.686 160.599, 455.078 160, 456.516 160 C 457.955 160, 460.114 159.460, 461.316 158.800 C 462.517 158.141, 469.350 156.349, 476.500 154.820 C 502.238 149.313, 500 150.071, 500 146.862 C 500 144.386, 499.618 144, 497.167 144 C 495.608 144, 494.021 144.313, 493.639 144.695 M 414.977 209.250 C 411.520 214.888, 408.725 223.334, 408.772 228 C 408.807 231.468, 411.148 237.775, 418.979 255.500 C 424.568 268.150, 430.389 280.075, 431.914 282 C 435.168 286.106, 443.604 289.924, 449.522 289.969 C 453.394 289.999, 464.907 287.312, 488.750 280.816 L 500 277.751 500 271.808 C 500 266.609, 499.781 265.933, 498.250 266.405 C 493.544 267.856, 462.062 275.953, 459 276.500 C 454.499 277.303, 446.363 275.483, 442.410 272.787 C 437.658 269.547, 435.533 265.766, 425.523 242.736 C 415.198 218.982, 414.114 215.056, 416.383 209.627 C 418.264 205.124, 417.615 204.950, 414.977 209.250 M 474.667 209.667 C 474.300 210.033, 474 211.383, 474 212.667 C 474 214.319, 474.573 215, 475.965 215 C 478.082 215, 480.479 211.584, 479.487 209.979 C 478.799 208.866, 475.670 208.663, 474.667 209.667 M 495 218.210 C 493.075 218.763, 489.700 219.885, 487.500 220.704 C 485.300 221.522, 481.475 222.577, 479 223.046 C 464.468 225.805, 455 228.774, 455 230.574 C 455 232.459, 457.635 233.519, 459.263 232.289 C 459.943 231.775, 461.451 231.307, 462.614 231.249 C 465.084 231.127, 482.308 226.887, 492.750 223.831 C 499.096 221.973, 500 221.415, 500 219.354 C 500 216.767, 500.012 216.770, 495 218.210 M 361.173 235.980 C 359.978 237.597, 359 239.563, 359 240.350 C 359 241.137, 357.425 244.967, 355.500 248.863 C 353.575 252.758, 352 256.225, 352 256.568 C 352 256.911, 351.181 258.386, 350.179 259.846 C 349.177 261.306, 347.602 264.525, 346.679 267 C 345.755 269.475, 343.028 275.550, 340.619 280.500 C 336.625 288.705, 336.373 289.655, 337.774 291.250 C 338.619 292.212, 339.624 293, 340.007 293 C 340.390 293, 342.187 289.738, 344 285.750 C 345.813 281.762, 350.421 271.821, 354.239 263.658 C 363.077 244.764, 366.317 235.508, 364.594 234.078 C 363.678 233.317, 362.767 233.824, 361.173 235.980 M 484.604 239.590 C 483.479 242.520, 485.883 243.995, 488.784 242.155 C 490.527 241.049, 489.218 238, 487 238 C 486.018 238, 484.939 238.716, 484.604 239.590 M 283.063 242.911 C 278.497 249.324, 276.020 256.310, 276.010 262.804 C 276.001 268.576, 276.820 271.009, 285.724 291.635 C 295.977 315.390, 299.208 320.535, 306.068 324.034 C 311.157 326.631, 319.810 326.596, 330.333 323.936 C 373.860 312.934, 406.008 303.711, 410.611 300.905 C 414.448 298.566, 418.577 292.631, 419.518 288.102 L 420.224 284.704 417.354 286.748 C 413.966 289.161, 402.355 292.776, 373 300.558 C 332.925 311.182, 325.516 313, 322.292 313 C 317.141 313, 308.402 309.222, 305.251 305.633 C 301.929 301.850, 283.402 259.363, 282.434 253.310 C 281.957 250.330, 282.325 248.053, 283.837 244.635 C 286.204 239.284, 285.988 238.803, 283.063 242.911 M 332.460 251.125 C 332.038 252.456, 332.293 253.576, 333.143 254.124 C 335.472 255.624, 337.487 254.597, 337.816 251.741 C 338.087 249.400, 337.768 249, 335.634 249 C 333.964 249, 332.911 249.705, 332.460 251.125 M 223.438 270.750 C 220.352 277.621, 218.206 283.163, 214.821 293 C 213.781 296.025, 212.551 299.400, 212.089 300.500 C 209.459 306.762, 208.776 308.935, 207.433 315.319 C 206.619 319.186, 205.475 322.927, 204.891 323.632 C 203.552 325.245, 204.577 327, 206.859 327 C 209.102 327, 211 325.085, 211 322.821 C 211 321.843, 212.125 317.691, 213.500 313.595 C 214.875 309.499, 216 305.241, 216 304.133 C 216 303.025, 216.399 301.871, 216.887 301.570 C 217.374 301.269, 218.080 299.387, 218.455 297.388 C 218.830 295.389, 219.536 293.022, 220.025 292.127 C 220.513 291.232, 222.527 286.225, 224.500 281 C 226.473 275.775, 228.518 270.719, 229.044 269.764 C 230.606 266.928, 230.195 264, 228.235 264 C 227.023 264, 225.522 266.112, 223.438 270.750 M 372.250 272.662 C 371.563 272.940, 371 274.254, 371 275.583 C 371 277.309, 371.555 278, 372.941 278 C 375.387 278, 376.310 276.552, 375.497 273.991 C 374.850 271.954, 374.431 271.782, 372.250 272.662 M 180.503 277.995 C 180.127 278.603, 180.559 280.658, 181.462 282.561 C 183.285 286.404, 182.845 288, 179.961 288 C 178.905 288, 176.231 288.724, 174.020 289.609 C 170.896 290.859, 170 291.750, 170 293.609 C 170 294.924, 170.113 295.994, 170.250 295.987 C 170.387 295.980, 173.353 295.080, 176.839 293.987 C 185.031 291.419, 185.651 291.468, 186.469 294.750 C 188.259 301.932, 192.310 308.202, 194.594 307.326 C 196.671 306.529, 196.313 303.413, 193.500 297.813 C 192.125 295.076, 191 292.230, 191 291.489 C 191 290.708, 193.418 289.444, 196.750 288.481 C 202.686 286.767, 206 284.607, 206 282.452 C 206 280.774, 203.640 279.981, 201.909 281.077 C 201.134 281.568, 199.520 281.976, 198.321 281.985 C 197.123 281.993, 195.469 282.674, 194.646 283.497 C 193.822 284.321, 192.486 284.740, 191.675 284.429 C 190.865 284.118, 189.873 284.397, 189.470 285.048 C 189.009 285.795, 187.927 284.620, 186.540 281.866 C 184.353 277.521, 181.806 275.887, 180.503 277.995 M 140.813 286.250 C 138.202 291.323, 137.609 293.630, 137.660 298.500 C 137.715 303.752, 138.798 306.993, 146.348 324.500 C 158.875 353.548, 159.661 354.951, 165.356 358.442 C 172.994 363.124, 179.172 363.055, 197.500 358.081 C 205.750 355.843, 224.357 350.860, 238.850 347.008 C 253.342 343.157, 267.067 339.173, 269.350 338.157 C 277.350 334.593, 286.029 323.077, 287.554 314 L 288.143 310.500 286.180 314.616 C 283.890 319.419, 279.167 323.316, 272.931 325.545 C 269.319 326.837, 214.986 341.616, 191.679 347.646 C 185.040 349.364, 179.773 348.819, 173.178 345.734 C 165.895 342.327, 165.219 341.084, 147.279 298.103 C 144.424 291.264, 143.860 288.805, 144.240 284.853 C 144.497 282.184, 144.554 280, 144.368 280 C 144.181 280, 142.582 282.813, 140.813 286.250 M 252.793 291.540 C 251.707 292.626, 241.463 296, 239.251 296 C 237.998 296, 236.191 296.395, 235.236 296.878 C 234.281 297.361, 231.740 298.513, 229.589 299.439 C 225.713 301.106, 225.695 301.140, 227.623 303.068 C 229.544 304.989, 229.647 304.989, 235.535 303.112 C 238.816 302.066, 243.976 300.481, 247.003 299.590 C 253.898 297.559, 259.226 293.535, 257 292.039 C 255.336 290.920, 253.617 290.716, 252.793 291.540 M 463.955 297.704 C 459.554 302.717, 455.713 311.422, 455.206 317.534 C 454.835 322.009, 455.498 324.174, 461.179 337.034 C 468.570 353.762, 477.930 371.575, 481.656 376.003 C 485.015 379.996, 488.501 381.732, 494.844 382.574 L 500 383.258 500 376.265 L 500 369.272 495.564 367.577 C 488.712 364.961, 485.023 359.858, 474.683 338.694 C 464.695 318.250, 462 311.608, 462 307.433 C 462 304.079, 464.351 298.649, 466.912 296.088 C 468.061 294.939, 468.597 294, 468.104 294 C 467.611 294, 465.744 295.667, 463.955 297.704 M 76.673 309.104 C 61.224 312.202, 50.915 329.005, 56.413 342.128 C 59.133 348.621, 64.072 351.523, 74.957 353.024 C 81.909 353.982, 82.905 353.873, 89.634 351.419 C 98.017 348.361, 102.021 344.935, 100.024 342.529 C 98.519 340.716, 96.827 340.573, 95.270 342.130 C 93.123 344.277, 83.480 346.935, 77.718 346.967 C 70.474 347.008, 65.998 345.175, 62.661 340.800 C 60.309 337.716, 60.136 336.900, 60.864 332.297 C 61.642 327.374, 64.820 322.172, 69.789 317.686 C 71.982 315.707, 80.852 313.031, 85.281 313.012 C 87.799 313.001, 90.024 310.691, 88.747 309.414 C 87.679 308.346, 81.273 308.182, 76.673 309.104 M 2.517 319.967 C 0.330 324.283, 0 326.235, 0 334.874 C -0 343.850, 0.300 345.477, 3.099 351.657 C 4.804 355.421, 8.870 365.018, 12.136 372.983 C 18.355 388.154, 20.894 391.843, 27.428 395.203 C 35.422 399.313, 40.166 398.887, 68.058 391.556 C 98.105 383.658, 127.077 375.413, 131.994 373.359 C 138.567 370.613, 144 363.841, 144 358.395 C 144 355.893, 143.869 355.807, 142.250 357.245 C 138.549 360.535, 122.749 365.313, 72.179 378.435 C 43.807 385.797, 40.739 385.967, 31.718 380.681 C 26.008 377.335, 24.820 375.353, 16.007 354.500 C 5.574 329.810, 3.614 323.564, 4.814 318.836 C 5.349 316.726, 5.618 315, 5.411 315 C 5.203 315, 3.901 317.235, 2.517 319.967 M 391.427 324.751 C 388.717 325.531, 386.072 326.581, 385.550 327.084 C 385.028 327.588, 383.930 328, 383.112 328 C 380.982 328, 375.015 332.259, 375.007 333.785 C 375.003 334.492, 374.370 336.067, 373.600 337.285 C 370.234 342.610, 374.116 348.565, 382.452 350.862 C 387.134 352.151, 395.355 350.374, 403.280 346.358 C 405.987 344.986, 408.764 344.079, 409.449 344.342 C 411.399 345.090, 412.147 355.879, 410.572 360.521 C 409.411 363.943, 408.472 364.818, 403.861 366.773 C 397.673 369.397, 391.640 369.165, 386.454 366.106 C 382.651 363.862, 380.468 364.745, 381.330 368.179 C 382.030 370.969, 385.803 372.548, 394.129 373.534 C 400.184 374.251, 406.188 372.357, 411.764 367.971 C 414.734 365.634, 417.412 357.281, 416.551 353.040 C 416.267 351.643, 415.795 348.925, 415.502 347 C 413.704 335.195, 410.589 328.463, 405.709 325.838 C 401.697 323.680, 396.519 323.286, 391.427 324.751 M 394 329 C 393.175 329.533, 391.375 329.985, 390 330.004 C 388.625 330.023, 385.363 331.380, 382.750 333.021 C 378.356 335.780, 378 336.308, 378 340.053 C 378 343.749, 378.311 344.232, 381.562 345.590 C 386.151 347.508, 394.027 346.184, 401.334 342.268 C 406.030 339.752, 406.500 339.185, 406.500 336.032 C 406.500 333.030, 405.962 332.259, 402.500 330.298 C 398.112 327.813, 396.271 327.532, 394 329 M 325.228 336.750 C 320.367 344.496, 318.708 350.108, 319.180 357.207 C 319.555 362.853, 320.827 365.964, 331.549 387.476 C 342.335 409.114, 343.916 411.743, 347.771 414.430 C 354.959 419.443, 361.034 419.226, 383.110 413.171 C 393.225 410.397, 411.400 405.595, 423.500 402.499 C 447.275 396.415, 452.938 394.359, 457.373 390.196 C 460.535 387.229, 463 382.270, 463 378.877 C 463 376.858, 462.866 376.811, 461.250 378.274 C 460.288 379.144, 457.385 380.764, 454.800 381.872 C 447.033 385.201, 369.860 405, 364.651 405 C 358.072 405, 352.821 402.054, 349.101 396.274 C 344.535 389.181, 328.184 355.302, 326.398 349.233 C 324.775 343.718, 325.123 339.688, 327.646 334.750 C 329.864 330.410, 328.497 331.540, 325.228 336.750 M 251.500 361.757 C 248.750 362.559, 245.790 363.841, 244.921 364.607 C 244.053 365.373, 243.034 366, 242.657 366 C 240.994 366, 235.997 372.812, 235.388 375.910 C 234.527 380.286, 237.164 385.411, 241.119 387.049 C 244.395 388.406, 244.501 388.753, 242.468 391.441 C 240.761 393.698, 240.481 403.162, 242.036 406.067 C 242.606 407.132, 244.739 408.700, 246.776 409.551 C 250.144 410.958, 251.342 410.944, 259.990 409.396 C 276.903 406.368, 287 399.681, 287 391.508 C 287 389.076, 285.987 387.308, 282.761 384.115 C 280.430 381.807, 277.548 379.674, 276.356 379.375 C 274.312 378.861, 274.275 378.681, 275.709 376.165 C 276.961 373.969, 277.026 372.752, 276.076 369.251 C 275.131 365.766, 274.181 364.623, 270.794 362.895 C 265.682 360.287, 258.081 359.839, 251.500 361.757 M 255 366.500 C 253.625 367.286, 251.350 367.945, 249.945 367.965 C 246.795 368.008, 240 374.011, 240 376.750 C 240 377.839, 240.976 379.971, 242.170 381.488 C 244.217 384.091, 244.689 384.219, 250.545 383.748 C 257.045 383.227, 267.088 378.770, 270.661 374.822 C 273.511 371.673, 270.826 367.974, 264.498 366.334 C 258.327 364.735, 258.081 364.739, 255 366.500 M 187.561 371.750 C 183.203 377.737, 180 385.982, 180 391.218 C 180 398.632, 202.218 445.481, 208.069 450.404 C 211.922 453.647, 218.287 455.365, 223.458 454.559 C 230.030 453.534, 308.153 433.048, 312.370 431.243 C 320.364 427.824, 328.181 417.503, 330.355 407.500 L 331.006 404.500 329.378 407.500 C 324.599 416.305, 321.399 417.677, 281.419 428.063 C 262.214 433.052, 243.359 438.004, 239.520 439.067 C 227.444 442.411, 219.261 441.499, 213.676 436.186 C 210.240 432.919, 202.337 418.309, 193.831 399.500 C 188.254 387.168, 187.500 384.765, 187.500 379.334 C 187.500 374.484, 187.987 372.509, 189.780 370.084 C 191.034 368.388, 191.826 367, 191.540 367 C 191.254 367, 189.463 369.137, 187.561 371.750 M 262 385.634 C 257.303 387.784, 254.629 388.569, 250.764 388.931 C 250.359 388.969, 248.879 390.737, 247.473 392.861 C 244.017 398.084, 244.252 403.814, 247.957 404.616 C 249.355 404.919, 251.139 405.370, 251.920 405.617 C 253.646 406.165, 264.126 404.015, 265.450 402.842 C 265.973 402.379, 267.572 402, 269.004 402 C 272.449 402, 280.629 396.743, 281.512 393.962 C 282.607 390.512, 280.195 387.348, 274.741 385.081 C 268.622 382.538, 268.774 382.532, 262 385.634 M 128 402.022 C 126.625 402.487, 122.575 403.537, 119 404.355 C 115.425 405.172, 110.025 406.574, 107 407.470 C 103.975 408.366, 100.153 409.432, 98.506 409.839 C 96.788 410.264, 95.363 411.354, 95.162 412.396 C 94.656 415.023, 96.368 416.380, 98.632 415.147 C 101.300 413.694, 106.345 412.111, 115.313 409.914 C 124.026 407.780, 130 407.443, 130 409.086 C 130 410.906, 124.977 434.266, 123.783 438 C 121.479 445.205, 121.137 449.115, 122.756 449.737 C 124.979 450.590, 127.476 448.635, 127.666 445.891 C 127.758 444.576, 129.254 436.750, 130.991 428.500 C 132.729 420.250, 134.229 410.800, 134.325 407.500 C 134.481 402.156, 134.281 401.482, 132.500 401.338 C 131.400 401.249, 129.375 401.557, 128 402.022 M 49.202 412.750 C 44.978 418.757, 43.654 422.518, 43.655 428.500 C 43.656 433.936, 44.475 436.267, 52.381 453.312 C 66.876 484.566, 70.313 489.604, 78.723 491.940 C 84.189 493.458, 84.107 493.470, 105.723 487.947 C 157.925 474.608, 175.825 469.647, 179.584 467.473 C 185.447 464.081, 190.436 458.123, 192.879 451.593 C 195.512 444.557, 195.595 442.512, 193.081 446.634 C 190.902 450.208, 185.810 454.361, 181.683 455.930 C 180.139 456.518, 167.541 459.949, 153.688 463.557 C 139.834 467.164, 121.039 472.115, 111.920 474.558 C 93.761 479.423, 87.644 479.930, 81.384 477.087 C 75.593 474.457, 73.298 470.981, 63.143 449.467 C 51.705 425.234, 49.523 418.921, 50.820 413.812 C 51.352 411.715, 51.641 410, 51.462 410 C 51.283 410, 50.266 411.238, 49.202 412.750 M 436.350 428.008 C 431.222 432.986, 428.935 437.680, 428.665 443.784 C 428.309 451.848, 433.435 460.039, 441.500 464.293 C 446.681 467.026, 458.777 467.010, 462.435 464.266 C 466.218 461.429, 468.937 456.737, 469.600 451.905 C 470.135 447.999, 469.866 446.994, 467.548 444.239 C 464.167 440.222, 459.112 439.099, 454.438 441.328 C 450.637 443.141, 448.585 448.409, 448.820 455.750 C 448.950 459.805, 448.823 460, 446.055 460 C 442.456 460, 437.209 455.744, 435.364 451.329 C 434.614 449.533, 434 445.781, 434 442.989 C 434 438.321, 434.377 437.511, 438.709 432.880 C 442.303 429.037, 443.958 427.950, 445.702 428.283 C 448.179 428.757, 450.570 426.731, 449.527 425.044 C 449.172 424.470, 446.991 424, 444.681 424 C 441.131 424, 439.839 424.622, 436.350 428.008 M 374.868 435.616 C 372.674 440.073, 371.496 444.072, 371.259 447.866 C 370.930 453.143, 371.540 454.956, 380.889 476.500 L 390.870 499.500 403.185 499.735 L 415.500 499.969 410 498.061 C 406.479 496.840, 403.412 494.901, 401.475 492.671 C 399.728 490.658, 394.273 479.543, 388.555 466.344 C 378.383 442.863, 376.444 435.776, 378.923 431.143 C 379.602 429.875, 379.674 429, 379.098 429 C 378.563 429, 376.660 431.977, 374.868 435.616 M 455.554 447.895 C 454.731 449.487, 453.779 452.531, 453.439 454.659 C 452.944 457.753, 453.217 458.886, 454.804 460.323 C 456.732 462.067, 456.888 462.016, 460.300 458.503 C 465.230 453.427, 465.877 450.151, 462.522 447.265 C 459.026 444.258, 457.357 444.409, 455.554 447.895 M 311.500 462.452 C 309.300 463.107, 306.785 463.968, 305.912 464.366 C 305.038 464.764, 300.538 466.082, 295.912 467.295 C 288.237 469.307, 287.473 469.731, 287.195 472.132 C 286.869 474.943, 292.664 486.900, 296.180 490.674 L 298.206 492.848 302.853 489.544 C 308.189 485.749, 314.379 482.545, 318 481.702 C 319.798 481.283, 321.305 481.820, 323.366 483.611 C 326.144 486.027, 326.194 486.236, 325.005 490.481 C 323.712 495.099, 320.832 498.478, 317.500 499.284 C 316.400 499.550, 317.975 499.817, 321 499.876 C 326.396 499.983, 326.543 499.910, 328.750 496.044 C 332.977 488.642, 331.038 480.606, 324.167 477.049 C 320.157 474.972, 309.614 478.170, 302.406 483.648 C 300.704 484.942, 299.013 486, 298.648 486 C 298.283 486, 296.698 483.345, 295.126 480.099 L 292.268 474.199 294.884 472.925 C 296.323 472.224, 297.846 471.732, 298.268 471.831 C 298.690 471.931, 300.498 471.401, 302.284 470.654 C 304.071 469.908, 307.760 468.963, 310.481 468.555 C 313.202 468.147, 316.332 467.180, 317.437 466.407 C 318.541 465.633, 320.470 465, 321.723 465 C 323.333 465, 324 464.415, 324 463 C 324 461.293, 323.377 461.019, 319.750 461.131 C 317.413 461.202, 313.700 461.797, 311.500 462.452 M 238.186 468.750 C 233.170 475.825, 231.791 486.026, 234.652 494.885 L 236.304 500 242.152 500 C 245.368 500, 248 499.752, 248 499.449 C 248 499.146, 246.214 494.703, 244.032 489.575 C 239.445 478.798, 238.331 473.358, 239.830 469.059 C 241.149 465.275, 240.709 465.192, 238.186 468.750 M 471 486.450 C 456.975 490.418, 440.550 495.052, 434.500 496.748 L 423.500 499.832 444.500 499.915 C 467.147 500.005, 470.410 499.489, 492.250 492.364 L 500 489.836 500 484.418 C 500 479.880, 499.716 479.019, 498.250 479.118 C 497.288 479.183, 485.025 482.483, 471 486.450" stroke="none" fill="#252424" fill-rule="evenodd"/><path d="M 390.655 25.829 C 389.745 26.835, 389 28.165, 389 28.786 C 389 29.406, 392.613 37.207, 397.029 46.120 C 401.445 55.033, 404.895 62.815, 404.697 63.413 C 404.498 64.011, 400.773 65.302, 396.418 66.281 C 392.063 67.261, 386.700 68.518, 384.500 69.074 C 382.300 69.630, 378.421 70.343, 375.880 70.657 C 370.396 71.337, 369.560 70.478, 369.399 64 C 369.338 61.525, 368.931 54.447, 368.495 48.270 C 367.867 39.374, 367.326 36.700, 365.889 35.399 C 361.692 31.601, 359.762 36.494, 361.311 47 C 361.757 50.025, 362.330 54.975, 362.584 58 C 363.928 74.024, 364.341 76.628, 365.801 78.285 C 366.690 79.294, 368.054 79.807, 368.937 79.464 C 370.924 78.693, 378.875 76.930, 381.500 76.679 C 382.600 76.573, 383.960 76.189, 384.521 75.826 C 385.083 75.462, 387.558 74.882, 390.021 74.536 C 392.485 74.189, 395.850 73.509, 397.500 73.023 C 399.150 72.537, 402.403 71.845, 404.728 71.486 L 408.956 70.832 412.542 78.666 C 414.515 82.975, 416.540 87.175, 417.044 88 C 419.033 91.256, 422.985 100.097, 423.626 102.723 C 424.490 106.262, 431.026 115, 432.809 115 C 433.254 115, 434.485 114.366, 435.546 113.590 C 437.328 112.287, 437.352 112.042, 435.863 110.340 C 434.977 109.328, 433.723 106.848, 433.075 104.830 C 432.428 102.811, 431.246 100.619, 430.449 99.958 C 429.652 99.296, 429.004 98.248, 429.008 97.628 C 429.016 96.595, 422.010 81.511, 419.892 78 C 418.716 76.051, 404.595 47.131, 401.337 40 C 399.954 36.975, 398.398 33.825, 397.878 33 C 397.358 32.175, 396.204 29.813, 395.314 27.750 C 393.475 23.487, 392.965 23.276, 390.655 25.829 M 319.757 43.364 C 311.245 48.598, 306.266 55.036, 303.178 64.802 C 302.224 67.819, 302.346 68.200, 304.584 69.220 C 306.635 70.155, 307.270 70.024, 308.485 68.418 C 309.283 67.363, 309.951 65.865, 309.968 65.088 C 309.986 64.311, 311.078 61.836, 312.396 59.588 C 318.102 49.853, 329.596 45.111, 335.310 50.133 C 339.785 54.066, 339.645 66.709, 335.065 72.228 C 324.489 84.969, 319.422 92.351, 319.876 94.355 C 319.983 94.826, 319.624 95.748, 319.079 96.405 C 317.495 98.313, 316.627 105.651, 317.892 106.433 C 318.502 106.810, 319.010 108.779, 319.022 110.809 C 319.034 112.839, 319.916 116.422, 320.982 118.771 C 322.049 121.120, 322.693 123.636, 322.415 124.361 C 322.137 125.086, 322.604 126.257, 323.454 126.962 C 324.305 127.668, 325 129.090, 325 130.122 C 325 131.155, 325.450 132, 326 132 C 326.550 132, 327.003 133.012, 327.007 134.250 C 327.011 135.682, 328.245 137.339, 330.402 138.807 C 333.565 140.960, 334.021 141.018, 337.239 139.673 C 339.136 138.881, 343.551 137.900, 347.051 137.494 C 350.551 137.088, 355.909 135.940, 358.957 134.944 C 362.006 133.948, 366.379 132.961, 368.675 132.752 C 370.971 132.542, 373.558 131.782, 374.425 131.063 C 377.742 128.309, 375.023 122.855, 371.314 124.824 C 370.316 125.353, 364.100 126.770, 357.500 127.972 C 350.900 129.173, 343.803 130.796, 341.730 131.578 C 336.380 133.596, 334 133.418, 334 131 C 334 129.900, 333.622 129, 333.160 129 C 332.698 129, 331.717 127.088, 330.979 124.750 C 330.242 122.412, 328.738 118.519, 327.638 116.098 C 326.156 112.839, 325.658 109.697, 325.718 103.992 C 325.808 95.475, 327.067 92.129, 332.267 86.586 C 339.530 78.845, 341 77.081, 341 76.108 C 341 75.547, 342.353 72.794, 344.006 69.990 C 346.345 66.023, 346.789 64.474, 346.006 63.011 C 345.453 61.977, 345 58.682, 345 55.688 C 345 52.070, 344.497 49.828, 343.500 49 C 342.675 48.315, 342 47.156, 342 46.424 C 342 44.378, 333.299 40.996, 328.123 41.031 C 325.093 41.052, 322.211 41.855, 319.757 43.364 M 252.590 59.726 C 250.704 62.325, 249.376 64.800, 249.639 65.226 C 250.476 66.579, 255.276 66.060, 257.089 64.420 C 258.714 62.949, 258.983 63.174, 260.974 67.670 C 262.150 70.326, 264.257 75.875, 265.657 80 C 267.056 84.125, 268.831 88, 269.600 88.610 C 270.370 89.221, 270.999 90.121, 270.998 90.610 C 270.998 91.100, 272.974 95.775, 275.391 101 C 277.807 106.225, 280.544 112.525, 281.472 115 C 282.400 117.475, 283.897 120.850, 284.799 122.500 C 289.787 131.628, 294.849 142.435, 294.443 143.092 C 294.187 143.507, 292.679 144.131, 291.092 144.480 C 287.540 145.260, 284.552 148.389, 285.356 150.486 C 285.786 151.605, 286.741 151.878, 288.728 151.449 C 290.252 151.120, 292.175 150.830, 293 150.805 C 297.880 150.654, 315 145.612, 315 144.326 C 315 144.074, 314.506 142.945, 313.902 141.816 C 312.915 139.973, 312.202 139.832, 306.902 140.432 C 301.639 141.027, 301 140.904, 300.996 139.300 C 300.993 138.310, 299.645 135.475, 298 133 C 296.355 130.525, 295.007 127.712, 295.004 126.750 C 295.002 125.787, 294.100 124.100, 293 123 C 291.900 121.900, 291 120.100, 291 119 C 291 117.900, 290.618 117, 290.150 117 C 289.683 117, 288.053 113.963, 286.529 110.250 C 282.083 99.424, 276.707 87.623, 275.479 86 C 274.855 85.175, 273.771 82.475, 273.070 80 C 271.865 75.748, 268.889 68.654, 265.163 61.151 C 263.296 57.391, 260.429 55, 257.787 55 C 256.815 55, 254.476 57.126, 252.590 59.726 M 226.500 95.808 C 224.850 96.011, 223.039 96.558, 222.475 97.024 C 221.911 97.490, 218.986 98.183, 215.975 98.565 C 212.964 98.946, 208.974 99.879, 207.109 100.637 C 205.243 101.395, 202.318 102.205, 200.609 102.437 C 198.899 102.668, 194.842 103.790, 191.593 104.929 C 188.345 106.068, 184.389 107, 182.804 107 C 178.455 107, 172 110.635, 172 113.084 C 172 115.005, 172.434 115.094, 179.250 114.572 C 183.238 114.267, 188.975 113.102, 192 111.984 C 197.316 110.018, 210.430 106.569, 216.413 105.563 C 218.016 105.294, 219.793 104.607, 220.363 104.037 C 220.934 103.466, 222.703 103, 224.296 103 C 227.081 103, 233 100.239, 233 98.939 C 233 97.310, 229.194 95.476, 226.500 95.808 M 231 123.741 C 228.525 124.566, 225.150 125.807, 223.500 126.500 C 219.373 128.232, 197.716 133.063, 191 133.749 C 184.848 134.377, 180.308 137.462, 182.193 139.733 C 183.414 141.203, 193.154 141.458, 195.764 140.088 C 196.719 139.587, 200.200 138.643, 203.500 137.991 C 206.800 137.339, 212.200 136.127, 215.500 135.298 C 218.800 134.469, 222.475 133.725, 223.667 133.645 C 224.859 133.565, 226.171 133.162, 226.584 132.750 C 226.996 132.338, 228.389 132, 229.680 132 C 230.971 132, 232.809 131.598, 233.764 131.108 C 234.719 130.617, 236.738 129.726, 238.250 129.129 C 240.404 128.278, 241 127.388, 241 125.021 C 241 122.363, 240.670 122.014, 238.250 122.120 C 236.738 122.186, 233.475 122.916, 231 123.741 M 465 188.484 C 447.125 193.060, 430.304 197.757, 427.621 198.922 C 423.438 200.737, 415.818 206, 417.372 206 C 417.661 206, 417.216 207.632, 416.383 209.627 C 415.357 212.080, 415.089 214.568, 415.553 217.316 C 416.355 222.061, 433.748 262.549, 437.063 267.386 C 440.263 272.057, 444.733 274.813, 451.226 276.117 C 456.486 277.173, 457.893 276.977, 473.173 273.063 C 482.153 270.762, 491.863 268.200, 494.750 267.369 L 500 265.858 500 243.929 C 500 230.994, 499.617 222, 499.065 222 C 498.551 222, 496.916 222.462, 495.431 223.026 C 491.515 224.515, 465.163 231.122, 462.640 231.247 C 461.463 231.306, 459.943 231.775, 459.263 232.289 C 457.635 233.519, 455 232.459, 455 230.574 C 455 228.774, 464.468 225.805, 479 223.046 C 481.475 222.577, 485.300 221.526, 487.500 220.712 C 489.700 219.898, 493.413 218.712, 495.750 218.076 L 500 216.920 500 198.460 C 500 184.315, 499.708 180.019, 498.750 180.082 C 498.063 180.127, 482.875 183.908, 465 188.484 M 474.667 209.667 C 474.300 210.033, 474 211.383, 474 212.667 C 474 214.319, 474.573 215, 475.965 215 C 478.082 215, 480.479 211.584, 479.487 209.979 C 478.799 208.866, 475.670 208.663, 474.667 209.667 M 338.406 222.837 C 291.405 234.743, 288.350 235.936, 284.186 244.012 C 282.408 247.458, 282 249.499, 282.424 252.806 C 283.187 258.745, 301.699 301.588, 305.251 305.633 C 308.402 309.222, 317.141 313, 322.292 313 C 325.521 313, 333.140 311.130, 373 300.552 C 409.722 290.808, 414.973 289.027, 419.070 284.930 C 423.577 280.423, 425.540 273.719, 424.013 268.049 C 422.831 263.660, 419.370 255.601, 414.436 245.750 C 412.577 242.037, 411.380 238.993, 411.778 238.985 C 412.175 238.976, 412.003 238.639, 411.395 238.235 C 410.788 237.831, 408.347 233.900, 405.972 229.500 C 403.597 225.100, 400.764 220.210, 399.676 218.633 C 397.096 214.894, 390.647 212.027, 385 212.109 C 382.525 212.144, 361.557 216.972, 338.406 222.837 M 361.173 235.980 C 359.978 237.597, 359 239.563, 359 240.350 C 359 241.137, 357.425 244.967, 355.500 248.863 C 353.575 252.758, 352 256.225, 352 256.568 C 352 256.911, 351.181 258.386, 350.179 259.846 C 349.177 261.306, 347.602 264.525, 346.679 267 C 345.755 269.475, 343.028 275.550, 340.619 280.500 C 336.625 288.705, 336.373 289.655, 337.774 291.250 C 338.619 292.212, 339.624 293, 340.007 293 C 340.390 293, 342.187 289.738, 344 285.750 C 345.813 281.762, 350.421 271.821, 354.239 263.658 C 363.077 244.764, 366.317 235.508, 364.594 234.078 C 363.678 233.317, 362.767 233.824, 361.173 235.980 M 484.604 239.590 C 483.479 242.520, 485.883 243.995, 488.784 242.155 C 490.527 241.049, 489.218 238, 487 238 C 486.018 238, 484.939 238.716, 484.604 239.590 M 235.500 248.947 C 231.650 249.957, 213.214 254.692, 194.532 259.469 C 158.112 268.782, 155.811 269.517, 150.591 273.499 C 143.227 279.115, 142.302 286.389, 147.412 298.500 C 166.037 342.639, 165.857 342.309, 173.178 345.734 C 179.773 348.819, 185.040 349.364, 191.679 347.646 C 214.986 341.616, 269.319 326.837, 272.931 325.545 C 282.964 321.958, 288.833 313.930, 287.453 305.683 C 286.024 297.139, 266.897 257.963, 261.538 252.605 C 255.696 246.762, 247.965 245.676, 235.500 248.947 M 332.460 251.125 C 332.038 252.456, 332.293 253.576, 333.143 254.124 C 335.472 255.624, 337.487 254.597, 337.816 251.741 C 338.087 249.400, 337.768 249, 335.634 249 C 333.964 249, 332.911 249.705, 332.460 251.125 M 223.438 270.750 C 220.352 277.621, 218.206 283.163, 214.821 293 C 213.781 296.025, 212.551 299.400, 212.089 300.500 C 209.459 306.762, 208.776 308.935, 207.433 315.319 C 206.619 319.186, 205.475 322.927, 204.891 323.632 C 203.552 325.245, 204.577 327, 206.859 327 C 209.102 327, 211 325.085, 211 322.821 C 211 321.843, 212.125 317.691, 213.500 313.595 C 214.875 309.499, 216 305.241, 216 304.133 C 216 303.025, 216.399 301.871, 216.887 301.570 C 217.374 301.269, 218.080 299.387, 218.455 297.388 C 218.830 295.389, 219.536 293.022, 220.025 292.127 C 220.513 291.232, 222.527 286.225, 224.500 281 C 226.473 275.775, 228.518 270.719, 229.044 269.764 C 230.606 266.928, 230.195 264, 228.235 264 C 227.023 264, 225.522 266.112, 223.438 270.750 M 372.250 272.662 C 371.563 272.940, 371 274.254, 371 275.583 C 371 277.309, 371.555 278, 372.941 278 C 375.387 278, 376.310 276.552, 375.497 273.991 C 374.850 271.954, 374.431 271.782, 372.250 272.662 M 180.503 277.995 C 180.127 278.603, 180.559 280.658, 181.462 282.561 C 183.285 286.404, 182.845 288, 179.961 288 C 178.905 288, 176.231 288.724, 174.020 289.609 C 170.896 290.859, 170 291.750, 170 293.609 C 170 294.924, 170.113 295.994, 170.250 295.987 C 170.387 295.980, 173.353 295.080, 176.839 293.987 C 185.031 291.419, 185.651 291.468, 186.469 294.750 C 188.259 301.932, 192.310 308.202, 194.594 307.326 C 196.671 306.529, 196.313 303.413, 193.500 297.813 C 192.125 295.076, 191 292.230, 191 291.489 C 191 290.708, 193.418 289.444, 196.750 288.481 C 202.686 286.767, 206 284.607, 206 282.452 C 206 280.774, 203.640 279.981, 201.909 281.077 C 201.134 281.568, 199.520 281.976, 198.321 281.985 C 197.123 281.993, 195.469 282.674, 194.646 283.497 C 193.822 284.321, 192.486 284.740, 191.675 284.429 C 190.865 284.118, 189.873 284.397, 189.470 285.048 C 189.009 285.795, 187.927 284.620, 186.540 281.866 C 184.353 277.521, 181.806 275.887, 180.503 277.995 M 92.500 285.226 C 16.135 304.543, 13.799 305.278, 7.812 311.857 C 5.990 313.859, 4.641 315.722, 4.814 315.998 C 4.987 316.274, 4.858 317.945, 4.526 319.711 C 3.770 323.744, 6.476 331.945, 16.007 354.500 C 24.820 375.353, 26.008 377.335, 31.718 380.681 C 40.739 385.967, 43.807 385.797, 72.179 378.435 C 122.732 365.317, 138.527 360.496, 143.123 356.778 C 146.374 354.148, 148.993 348.528, 148.996 344.171 C 149.001 338.877, 146.164 331.559, 135.559 309.500 C 121.652 280.576, 118.316 278.695, 92.500 285.226 M 486.548 287.137 C 469.702 292.144, 463.744 296.642, 462.318 305.427 C 461.513 310.388, 463.594 315.997, 474.591 338.506 C 486.011 361.880, 488.998 365.741, 497.750 368.441 L 500 369.135 500 326.567 C 500 286.660, 499.891 284.006, 498.250 284.089 C 497.288 284.139, 492.022 285.510, 486.548 287.137 M 252.793 291.540 C 251.707 292.626, 241.463 296, 239.251 296 C 237.998 296, 236.191 296.395, 235.236 296.878 C 234.281 297.361, 231.740 298.513, 229.589 299.439 C 225.713 301.106, 225.695 301.140, 227.623 303.068 C 229.544 304.989, 229.647 304.989, 235.535 303.112 C 238.816 302.066, 243.976 300.481, 247.003 299.590 C 253.898 297.559, 259.226 293.535, 257 292.039 C 255.336 290.920, 253.617 290.716, 252.793 291.540 M 383.242 313.615 C 362.200 319.345, 342.400 324.998, 339.242 326.177 C 328.562 330.162, 323.601 338.286, 325.974 347.904 C 327.326 353.384, 343.978 388.263, 348.837 395.794 C 352.911 402.107, 357.880 405, 364.651 405 C 370.244 405, 447.853 384.942, 455.423 381.540 C 463.691 377.824, 468 371.945, 468 364.378 C 468 362.458, 466.441 357.200, 464.536 352.693 C 453.219 325.927, 447.827 314.157, 445.605 311.371 C 441.764 306.558, 433.742 302.980, 427.054 303.098 C 423.365 303.163, 408.650 306.695, 383.242 313.615 M 76.673 309.104 C 61.224 312.202, 50.915 329.005, 56.413 342.128 C 59.133 348.621, 64.072 351.523, 74.957 353.024 C 81.909 353.982, 82.905 353.873, 89.634 351.419 C 98.017 348.361, 102.021 344.935, 100.024 342.529 C 98.519 340.716, 96.827 340.573, 95.270 342.130 C 93.123 344.277, 83.480 346.935, 77.718 346.967 C 70.474 347.008, 65.998 345.175, 62.661 340.800 C 60.309 337.716, 60.136 336.900, 60.864 332.297 C 61.642 327.374, 64.820 322.172, 69.789 317.686 C 71.982 315.707, 80.852 313.031, 85.281 313.012 C 87.799 313.001, 90.024 310.691, 88.747 309.414 C 87.679 308.346, 81.273 308.182, 76.673 309.104 M 391.427 324.751 C 388.717 325.531, 386.072 326.581, 385.550 327.084 C 385.028 327.588, 383.930 328, 383.112 328 C 380.982 328, 375.015 332.259, 375.007 333.785 C 375.003 334.492, 374.370 336.067, 373.600 337.285 C 370.234 342.610, 374.116 348.565, 382.452 350.862 C 387.134 352.151, 395.355 350.374, 403.280 346.358 C 405.987 344.986, 408.764 344.079, 409.449 344.342 C 411.399 345.090, 412.147 355.879, 410.572 360.521 C 409.411 363.943, 408.472 364.818, 403.861 366.773 C 397.673 369.397, 391.640 369.165, 386.454 366.106 C 382.651 363.862, 380.468 364.745, 381.330 368.179 C 382.030 370.969, 385.803 372.548, 394.129 373.534 C 400.184 374.251, 406.188 372.357, 411.764 367.971 C 414.734 365.634, 417.412 357.281, 416.551 353.040 C 416.267 351.643, 415.795 348.925, 415.502 347 C 413.704 335.195, 410.589 328.463, 405.709 325.838 C 401.697 323.680, 396.519 323.286, 391.427 324.751 M 394 329 C 393.175 329.533, 391.375 329.985, 390 330.004 C 388.625 330.023, 385.363 331.380, 382.750 333.021 C 378.356 335.780, 378 336.308, 378 340.053 C 378 343.749, 378.311 344.232, 381.562 345.590 C 386.151 347.508, 394.027 346.184, 401.334 342.268 C 406.030 339.752, 406.500 339.185, 406.500 336.032 C 406.500 333.030, 405.962 332.259, 402.500 330.298 C 398.112 327.813, 396.271 327.532, 394 329 M 286.500 338.728 C 283.772 339.070, 267.216 343.408, 222.500 355.497 C 213.700 357.876, 203.947 360.782, 200.826 361.955 C 191.140 365.595, 186.246 372.616, 187.241 381.446 C 188.166 389.656, 208.054 430.840, 213.676 436.186 C 219.261 441.499, 227.444 442.411, 239.520 439.067 C 243.359 438.004, 262.130 433.074, 281.233 428.111 C 300.337 423.148, 316.987 418.562, 318.233 417.919 C 326.728 413.535, 331.540 406.484, 330.760 399.561 C 329.811 391.140, 311.390 349.457, 306.423 344.490 C 302.512 340.579, 293.204 337.887, 286.500 338.728 M 251.500 361.757 C 248.750 362.559, 245.790 363.841, 244.921 364.607 C 244.053 365.373, 243.034 366, 242.657 366 C 240.994 366, 235.997 372.812, 235.388 375.910 C 234.527 380.286, 237.164 385.411, 241.119 387.049 C 244.395 388.406, 244.501 388.753, 242.468 391.441 C 240.761 393.698, 240.481 403.162, 242.036 406.067 C 242.606 407.132, 244.739 408.700, 246.776 409.551 C 250.144 410.958, 251.342 410.944, 259.990 409.396 C 276.903 406.368, 287 399.681, 287 391.508 C 287 389.076, 285.987 387.308, 282.761 384.115 C 280.430 381.807, 277.548 379.674, 276.356 379.375 C 274.312 378.861, 274.275 378.681, 275.709 376.165 C 276.961 373.969, 277.026 372.752, 276.076 369.251 C 275.131 365.766, 274.181 364.623, 270.794 362.895 C 265.682 360.287, 258.081 359.839, 251.500 361.757 M 255 366.500 C 253.625 367.286, 251.350 367.945, 249.945 367.965 C 246.795 368.008, 240 374.011, 240 376.750 C 240 377.839, 240.976 379.971, 242.170 381.488 C 244.217 384.091, 244.689 384.219, 250.545 383.748 C 257.045 383.227, 267.088 378.770, 270.661 374.822 C 273.511 371.673, 270.826 367.974, 264.498 366.334 C 258.327 364.735, 258.081 364.739, 255 366.500 M 146 376.648 C 101.065 388.631, 66.595 398.243, 62.947 399.807 C 56.482 402.580, 52.440 406.998, 51.044 412.815 C 49.524 419.153, 51.127 424.009, 63.143 449.467 C 73.298 470.981, 75.593 474.457, 81.384 477.087 C 87.644 479.930, 93.761 479.423, 111.920 474.558 C 121.039 472.115, 139.975 467.138, 154 463.499 C 181.952 456.245, 186.446 454.534, 190.914 449.445 C 195.321 444.426, 196.340 439.597, 194.401 432.930 C 193.532 429.943, 192.749 426.530, 192.660 425.345 C 192.572 424.161, 192.086 423.447, 191.580 423.760 C 191.071 424.074, 190.954 423.562, 191.319 422.612 C 191.681 421.668, 191.613 421.121, 191.168 421.396 C 190.362 421.894, 186.359 412.181, 186.780 410.750 C 186.901 410.337, 186.640 410, 186.201 410 C 185.761 410, 184.792 408.313, 184.046 406.250 C 183.300 404.188, 182.836 402.500, 183.014 402.500 C 183.192 402.500, 182.715 401.375, 181.954 400 C 181.193 398.625, 180.526 397.275, 180.470 397 C 180.415 396.725, 179.129 393.955, 177.613 390.844 C 173.878 383.185, 168.799 378.315, 162.637 376.485 C 156.593 374.690, 153.220 374.723, 146 376.648 M 262 385.634 C 257.303 387.784, 254.629 388.569, 250.764 388.931 C 250.359 388.969, 248.879 390.737, 247.473 392.861 C 244.017 398.084, 244.252 403.814, 247.957 404.616 C 249.355 404.919, 251.139 405.370, 251.920 405.617 C 253.646 406.165, 264.126 404.015, 265.450 402.842 C 265.973 402.379, 267.572 402, 269.004 402 C 272.449 402, 280.629 396.743, 281.512 393.962 C 282.607 390.512, 280.195 387.348, 274.741 385.081 C 268.622 382.538, 268.774 382.532, 262 385.634 M 449.500 403.878 C 435.200 407.639, 417.200 412.375, 409.500 414.403 C 393.784 418.542, 386.898 421.420, 382.500 425.686 C 378.764 429.311, 378.500 430.094, 378.523 437.500 C 378.540 442.876, 379.562 445.839, 388.352 466 C 393.748 478.375, 399.315 490.016, 400.723 491.869 C 403.710 495.799, 410.019 498.860, 416.789 499.661 C 420.828 500.140, 427.354 498.626, 458.538 489.978 C 478.867 484.340, 496.512 479.511, 497.750 479.247 L 500 478.767 500 444.721 L 500 410.676 497.598 406.588 C 493.760 400.057, 489.627 397.594, 482 397.295 C 476.650 397.086, 470.902 398.250, 449.500 403.878 M 128 402.022 C 126.625 402.487, 122.575 403.537, 119 404.355 C 115.425 405.172, 110.025 406.574, 107 407.470 C 103.975 408.366, 100.153 409.432, 98.506 409.839 C 96.788 410.264, 95.363 411.354, 95.162 412.396 C 94.656 415.023, 96.368 416.380, 98.632 415.147 C 101.300 413.694, 106.345 412.111, 115.313 409.914 C 124.026 407.780, 130 407.443, 130 409.086 C 130 410.906, 124.977 434.266, 123.783 438 C 121.479 445.205, 121.137 449.115, 122.756 449.737 C 124.979 450.590, 127.476 448.635, 127.666 445.891 C 127.758 444.576, 129.254 436.750, 130.991 428.500 C 132.729 420.250, 134.229 410.800, 134.325 407.500 C 134.481 402.156, 134.281 401.482, 132.500 401.338 C 131.400 401.249, 129.375 401.557, 128 402.022 M 436.350 428.008 C 431.222 432.986, 428.935 437.680, 428.665 443.784 C 428.309 451.848, 433.435 460.039, 441.500 464.293 C 446.681 467.026, 458.777 467.010, 462.435 464.266 C 466.218 461.429, 468.937 456.737, 469.600 451.905 C 470.135 447.999, 469.866 446.994, 467.548 444.239 C 464.167 440.222, 459.112 439.099, 454.438 441.328 C 450.637 443.141, 448.585 448.409, 448.820 455.750 C 448.950 459.805, 448.823 460, 446.055 460 C 442.456 460, 437.209 455.744, 435.364 451.329 C 434.614 449.533, 434 445.781, 434 442.989 C 434 438.321, 434.377 437.511, 438.709 432.880 C 442.303 429.037, 443.958 427.950, 445.702 428.283 C 448.179 428.757, 450.570 426.731, 449.527 425.044 C 449.172 424.470, 446.991 424, 444.681 424 C 441.131 424, 439.839 424.622, 436.350 428.008 M 335 434.132 C 333.075 434.655, 315.128 439.368, 295.119 444.605 C 252.942 455.643, 249.541 456.792, 244.685 461.648 C 237.599 468.735, 237.515 474.129, 244.246 490.118 L 248.445 500.093 283.643 499.797 L 318.842 499.500 321.311 497.179 C 322.669 495.903, 324.331 492.888, 325.005 490.481 C 326.194 486.236, 326.144 486.027, 323.366 483.611 C 321.305 481.820, 319.798 481.283, 318 481.702 C 314.379 482.545, 308.189 485.749, 302.853 489.544 L 298.206 492.848 296.180 490.674 C 292.664 486.900, 286.869 474.943, 287.195 472.132 C 287.474 469.727, 288.235 469.308, 296 467.278 C 300.675 466.056, 305.400 464.643, 306.500 464.138 C 310.104 462.484, 316.662 461, 320.366 461 C 323.333 461, 324 461.367, 324 463 C 324 464.415, 323.333 465, 321.723 465 C 320.470 465, 318.541 465.633, 317.437 466.407 C 316.332 467.180, 313.202 468.147, 310.481 468.555 C 307.760 468.963, 304.071 469.908, 302.284 470.654 C 300.498 471.401, 298.690 471.931, 298.268 471.831 C 297.846 471.732, 296.323 472.224, 294.884 472.925 L 292.268 474.199 295.126 480.099 C 296.698 483.345, 298.283 486, 298.648 486 C 299.013 486, 300.704 484.942, 302.406 483.648 C 309.614 478.170, 320.157 474.972, 324.167 477.049 C 330.828 480.498, 333.126 489.270, 329 495.500 C 327.907 497.150, 327.010 498.837, 327.007 499.250 C 327.003 499.663, 339.570 500, 354.933 500 C 381.779 500, 382.889 499.924, 383.486 498.044 C 384.448 495.013, 383.063 489.491, 378.979 480.075 C 372.790 465.805, 361.342 443.560, 358.370 440.028 C 353.203 433.887, 344.230 431.623, 335 434.132 M 455.554 447.895 C 454.731 449.487, 453.779 452.531, 453.439 454.659 C 452.944 457.753, 453.217 458.886, 454.804 460.323 C 456.732 462.067, 456.888 462.016, 460.300 458.503 C 465.230 453.427, 465.877 450.151, 462.522 447.265 C 459.026 444.258, 457.357 444.409, 455.554 447.895 M 189 472.387 C 182.125 474.235, 163.328 479.160, 147.229 483.332 C 119.510 490.516, 106.980 494.910, 104.010 498.488 C 102.892 499.835, 109.811 500, 167.314 500 L 231.873 500 227.303 490.250 C 221.650 478.192, 218.983 474.542, 213.945 471.972 C 207.359 468.612, 202.763 468.689, 189 472.387 M 487 497.025 L 477.500 499.830 488.750 499.915 L 500 500 500 497 C 500 493.311, 499.573 493.311, 487 497.025" stroke="none" fill="#e793aa" fill-rule="evenodd"/></svg>