<svg xmlns="http://www.w3.org/2000/svg" width="500" height="500" viewBox="0 0 500 500" version="1.1"><path d="M 275 119.662 C 264.825 122.123, 255.825 124.489, 255 124.920 C 252.485 126.231, 252.578 130.919, 255.174 133.709 C 257.272 135.965, 258.039 136.154, 263 135.640 C 266.025 135.326, 276.150 133.142, 285.500 130.785 C 301.800 126.676, 302.512 126.393, 302.803 123.890 C 303.192 120.537, 298.667 114.964, 295.661 115.093 C 294.472 115.144, 285.175 117.200, 275 119.662 M 289.966 122.559 C 288.217 125.617, 287.010 128.344, 287.285 128.619 C 287.921 129.255, 299.106 126.074, 300.691 124.806 C 303.080 122.895, 299.099 117, 295.418 117 C 293.710 117, 292.358 118.379, 289.966 122.559 M 283 119.462 C 280.525 120.190, 277.296 121.058, 275.825 121.393 C 273.884 121.834, 272.333 123.510, 270.171 127.500 C 266.679 133.949, 266.883 134.057, 277.517 131.385 C 284.491 129.633, 284.391 129.713, 288.370 122.750 C 291.466 117.331, 291.072 117.089, 283 119.462 M 262.214 124.434 C 254.595 125.934, 253.579 126.762, 254.945 130.355 C 256.668 134.888, 263.309 136.028, 265.608 132.186 C 266.162 131.259, 267.639 128.813, 268.890 126.750 C 271.445 122.535, 271.594 122.587, 262.214 124.434 M 303.917 136.412 C 303.556 136.769, 265.113 146.104, 161 171.115 C 146.975 174.485, 135.321 177.404, 135.102 177.602 C 134.662 178.001, 151.819 215.972, 153.076 217.381 C 153.518 217.877, 164.058 215.776, 177.181 212.576 C 220.505 202.013, 320.472 178.145, 324.330 177.444 C 326.436 177.061, 328.385 176.159, 328.661 175.440 C 328.937 174.721, 324.739 165.562, 319.331 155.086 C 310.433 137.847, 309.255 136.038, 306.917 136.020 C 305.496 136.009, 304.146 136.186, 303.917 136.412 M 297 144.471 C 297 144.731, 298.135 147.510, 299.523 150.648 C 300.911 153.786, 301.680 156.720, 301.233 157.167 C 300.785 157.615, 298.339 158.266, 295.797 158.614 L 291.175 159.248 290.471 153.611 C 289.385 144.921, 287.560 145.215, 288.294 153.962 C 288.629 157.963, 289.119 161.452, 289.383 161.716 C 289.817 162.150, 296.319 160.941, 301.570 159.449 C 303.345 158.945, 304.103 159.867, 306.892 165.916 C 309.977 172.610, 311.557 174.776, 312.595 173.738 C 313.277 173.056, 298.889 144, 297.870 144 C 297.391 144, 297 144.212, 297 144.471 M 272.844 151.255 C 269.664 153.943, 267.627 157.652, 268.899 158.438 C 269.397 158.745, 270.751 157.393, 271.907 155.433 C 273.625 152.521, 274.513 151.926, 276.755 152.184 C 280.596 152.626, 281.089 157.539, 277.702 161.610 C 273.039 167.214, 272.750 168.478, 274.611 175.112 C 275.548 178.451, 276.937 181.422, 277.697 181.714 C 279.018 182.221, 290.666 180.317, 292.266 179.333 C 292.688 179.074, 292.803 178.490, 292.522 178.036 C 292.072 177.307, 289.530 177.644, 281.211 179.537 C 279.330 179.965, 278.662 179.434, 277.461 176.561 C 275.363 171.541, 275.652 167.571, 278.351 164.327 C 283.471 158.172, 284.251 154.251, 281 151 C 278.407 148.407, 276.129 148.478, 272.844 151.255 M 99.081 152.849 C 96.048 158.515, 95.524 157.144, 132.016 239 C 138.513 253.575, 151.785 283.500, 161.508 305.500 C 171.232 327.500, 181.318 350.225, 183.924 356 C 186.529 361.775, 193.799 378.169, 200.080 392.431 C 209.361 413.506, 212.299 419.208, 215.767 422.877 L 220.033 427.393 217.517 434.950 C 216.133 439.106, 215 443.143, 215 443.920 C 215 446.838, 216.582 443.624, 219.038 435.716 L 221.576 427.545 225.538 427.822 C 227.894 427.986, 233.553 426.829, 239.500 424.966 C 245 423.243, 254.675 420.344, 261 418.523 C 277.638 413.732, 312.948 403.305, 324 399.919 C 329.225 398.318, 334.850 396.604, 336.500 396.111 C 338.150 395.617, 344 393.846, 349.500 392.175 C 355 390.503, 362.650 388.218, 366.500 387.095 C 374.755 384.689, 414.198 373.066, 428.474 368.833 C 433.960 367.207, 440.169 364.909, 442.273 363.726 C 446.311 361.457, 450.483 355.853, 449.702 353.748 C 449.436 353.032, 448.798 353.604, 448.205 355.089 C 447.087 357.890, 442.087 362.533, 439.255 363.398 C 438.290 363.693, 429.850 366.162, 420.500 368.884 C 411.150 371.607, 400.350 374.778, 396.500 375.931 C 392.650 377.085, 384.775 379.423, 379 381.128 C 373.225 382.833, 363.325 385.772, 357 387.659 C 350.675 389.546, 342.350 391.995, 338.500 393.101 C 334.650 394.207, 329.700 395.726, 327.500 396.476 C 325.300 397.226, 320.800 398.578, 317.500 399.479 C 311.273 401.181, 306.073 402.717, 280 410.555 C 271.475 413.117, 263.150 415.566, 261.500 415.996 C 259.850 416.426, 253.100 418.472, 246.500 420.543 C 227.446 426.520, 225.459 426.818, 221.147 424.348 C 215.910 421.349, 213.114 416.682, 203.494 394.885 C 198.788 384.223, 193.410 372.125, 191.543 368 C 189.676 363.875, 184.565 352.400, 180.186 342.500 C 175.807 332.600, 171.007 321.800, 169.519 318.500 C 161.679 301.111, 158.902 294.866, 156.175 288.500 C 154.526 284.650, 149.723 273.850, 145.501 264.500 C 136.704 245.017, 132.589 235.065, 133.126 234.570 C 133.332 234.380, 138.450 233.098, 144.500 231.721 C 150.550 230.343, 160 228.062, 165.500 226.651 C 171 225.241, 182.925 222.302, 192 220.120 C 232.247 210.444, 282.244 198.261, 289.020 196.478 C 292.057 195.679, 296.557 194.611, 299.020 194.105 C 301.484 193.598, 307.775 192.086, 313 190.743 C 318.225 189.401, 330.488 186.357, 340.250 183.978 C 350.012 181.600, 358 179.282, 358 178.827 C 358 178.372, 357.605 178, 357.122 178 C 356.068 178, 326.247 185.186, 282.500 195.982 C 245.441 205.127, 209.520 213.918, 182.500 220.454 C 172.050 222.982, 159.058 226.186, 153.630 227.574 C 148.201 228.962, 141.676 230.494, 139.130 230.980 C 136.583 231.465, 133.805 232.130, 132.956 232.459 C 131.761 232.921, 130.186 230.275, 126.001 220.778 C 123.025 214.025, 116.150 198.600, 110.722 186.500 C 99.015 160.402, 98.497 158.880, 99.935 154.756 C 101.192 151.151, 100.644 149.928, 99.081 152.849 M 251.607 155.582 C 250.741 157.839, 250.823 158.005, 252.492 157.365 C 253.395 157.018, 254.241 157.524, 254.637 158.646 C 255.280 160.469, 256.959 164.340, 262.502 176.780 C 265.225 182.893, 265.249 183.098, 263.400 184.498 C 261.595 185.865, 261.634 185.938, 264.185 185.968 C 265.662 185.986, 268.024 185.561, 269.435 185.025 C 272.380 183.905, 272.995 181.549, 270.103 182.467 C 268.159 183.084, 265.908 179.133, 257.449 160.250 C 254.672 154.052, 252.776 152.536, 251.607 155.582 M 234.653 169.597 C 225.581 171.918, 224.188 172.522, 225.314 173.647 C 226.013 174.346, 242.954 170.171, 244.337 168.959 C 246.282 167.256, 242.947 167.475, 234.653 169.597 M 237.250 178.832 C 232.162 180.178, 228 181.723, 228 182.265 C 228 182.820, 229.199 182.985, 230.750 182.641 C 232.262 182.306, 236.330 181.423, 239.788 180.678 C 245.822 179.378, 249.106 177.693, 247.337 176.805 C 246.877 176.574, 242.338 177.486, 237.250 178.832 M 304.637 207.503 C 304.287 208.417, 304 210.227, 304 211.526 C 304 214.616, 310.593 229.140, 312.726 230.750 C 315.390 232.761, 320.104 232.232, 334.223 228.340 C 347.340 224.724, 351 222.978, 351 220.337 C 351 219.348, 350.528 219.242, 349.250 219.945 C 347.088 221.133, 321.388 228, 319.104 228 C 314.767 228, 311.682 223.577, 307.019 210.672 C 305.773 207.225, 305.092 206.318, 304.637 207.503 M 330.500 209.051 C 327.200 210.007, 323.209 211.084, 321.632 211.443 C 320.055 211.803, 319.024 212.357, 319.342 212.675 C 319.998 213.331, 334.080 210.187, 336.112 208.931 C 338.757 207.296, 336.378 207.347, 330.500 209.051 M 284.120 222.388 C 281.813 227.277, 280.117 231.777, 280.351 232.388 C 280.916 233.866, 289.255 216.258, 288.726 214.706 C 288.499 214.043, 286.427 217.500, 284.120 222.388 M 259.401 221.539 C 258.964 223.278, 259.801 226.505, 262.058 231.789 C 268.075 245.876, 268.483 246.026, 287.350 241.105 C 301.228 237.486, 307 235.099, 307 232.977 C 307 231.657, 307.799 231.502, 291.500 236 C 283.529 238.200, 275.980 240, 274.726 240 C 270.700 240, 268.406 237.314, 264.523 228.056 C 262.435 223.075, 260.571 219, 260.382 219 C 260.193 219, 259.751 220.142, 259.401 221.539 M 238.682 234.577 C 236.669 240.422, 235.556 244.981, 236.194 244.769 C 236.830 244.557, 238.125 241.709, 239.072 238.442 C 240.019 235.174, 241.515 230.827, 242.397 228.782 C 244.234 224.522, 244.317 224, 243.163 224 C 242.703 224, 240.686 228.760, 238.682 234.577 M 227.500 230 C 227.943 231.397, 227.680 232, 226.626 232 C 225.797 232, 224.800 232.515, 224.410 233.145 C 223.920 233.939, 224.538 234.130, 226.424 233.770 C 228.618 233.350, 229.319 233.710, 230.047 235.625 C 230.544 236.931, 231.427 238, 232.010 238 C 232.748 238, 232.756 237.413, 232.035 236.066 C 230.473 233.148, 230.758 232.278, 233.500 231.589 C 234.875 231.244, 236 230.472, 236 229.874 C 236 229.276, 235.325 229.059, 234.500 229.393 C 233.675 229.727, 232.329 230.272, 231.508 230.604 C 230.638 230.956, 229.761 230.540, 229.401 229.604 C 228.505 227.269, 226.749 227.635, 227.500 230 M 213.479 233.310 C 212.932 235.427, 213.649 238.236, 216.389 244.709 C 218.389 249.433, 220.807 253.891, 221.762 254.617 C 224.611 256.780, 229.739 256.208, 244.481 252.079 C 255.531 248.985, 258.938 247.611, 260.731 245.526 C 263.835 241.917, 263.584 240.530, 260.250 242.870 C 255.923 245.906, 229.435 252.536, 226.165 251.402 C 223.453 250.460, 221.292 246.992, 216.569 236 C 214.274 230.659, 214.185 230.581, 213.479 233.310 M 248 234.168 C 243.917 235.321, 241.743 237, 244.332 237 C 246.357 237, 253 234.357, 253 233.551 C 253 232.860, 252.352 232.940, 248 234.168 M 346.069 236.903 C 344.200 239.528, 343.592 239.795, 341.395 238.960 C 340.006 238.432, 338.198 238, 337.376 238 C 334.834 238, 336.786 239.707, 340.081 240.366 L 343.203 240.991 341.102 244.552 C 338.742 248.552, 338.621 249, 339.901 249 C 340.397 249, 341.740 247.410, 342.887 245.467 C 344.950 241.971, 345.003 241.950, 347.936 243.467 C 351.228 245.169, 355.449 245.536, 354.524 244.039 C 354.197 243.510, 352.366 242.784, 350.454 242.425 C 346.043 241.598, 345.509 240.678, 347.594 237.497 C 349.999 233.826, 348.638 233.295, 346.069 236.903 M 320.156 238.315 C 318.504 242.339, 318.589 242.755, 322.863 251.595 C 329.091 264.473, 329.522 264.640, 345.661 260.438 C 360.862 256.480, 364.936 254.987, 366.010 252.982 C 367.460 250.272, 367.252 249.939, 364.750 250.968 C 363.512 251.477, 356.270 253.545, 348.657 255.565 C 337.519 258.518, 334.349 259.024, 332.437 258.153 C 329.780 256.942, 323.070 244.648, 321.985 239 L 321.312 235.500 320.156 238.315 M 191.500 239.386 C 187.407 241.170, 185.681 243.500, 185.784 247.104 C 185.899 251.137, 187.299 252.625, 191.646 253.330 C 194.868 253.853, 201 251.975, 201 250.466 C 201 250.200, 198.532 250.273, 195.516 250.627 C 189.189 251.371, 186.555 250.034, 187.596 246.609 C 188.579 243.374, 190.912 241.178, 194.112 240.475 C 195.710 240.124, 196.762 239.424, 196.450 238.919 C 195.722 237.742, 195.147 237.796, 191.500 239.386 M 167.139 244.418 C 165.839 247.535, 165.902 247.811, 170.344 258.404 C 175.055 269.641, 176.400 269.952, 196.487 264.446 C 211.469 260.339, 214.351 259.132, 214.805 256.773 C 215.113 255.175, 214.783 255.182, 209.817 256.881 C 206.893 257.881, 199.185 259.992, 192.689 261.571 C 177.879 265.171, 177.124 264.883, 172.424 253.846 C 170.631 249.636, 168.983 245.136, 168.761 243.846 C 168.369 241.568, 168.322 241.585, 167.139 244.418 M 295 245.288 C 293.446 246.070, 292.382 247.565, 292.187 249.238 C 291.931 251.440, 292.360 252.052, 294.542 252.600 C 296.193 253.014, 298.470 252.669, 300.512 251.696 C 303.733 250.159, 303.828 250.179, 304.406 252.481 C 304.732 253.779, 304.741 255.511, 304.427 256.330 C 303.653 258.346, 299.412 259.291, 296.979 257.989 C 295.439 257.165, 295 257.244, 295 258.348 C 295 260.386, 299.294 260.916, 303.039 259.342 C 306.186 258.019, 306.238 257.888, 305.796 252.557 C 305.548 249.567, 304.763 246.419, 304.050 245.561 C 302.494 243.685, 298.428 243.562, 295 245.288 M 296.163 246.528 C 292.347 248.185, 292.405 250.352, 296.278 250.812 C 301.234 251.400, 305.434 247.148, 301.418 245.607 C 300.548 245.273, 299.761 245.018, 299.668 245.039 C 299.576 245.061, 297.998 245.730, 296.163 246.528 M 274.637 250.503 C 273.353 253.848, 274.079 257.208, 277.611 264.275 C 282.034 273.125, 283.624 275, 286.706 275 C 288.024 275, 295.491 273.399, 303.301 271.443 C 313.854 268.799, 318.128 267.266, 319.947 265.473 C 322.620 262.837, 322.257 261.259, 319.336 262.816 C 318.326 263.353, 311.079 265.483, 303.231 267.548 C 292.127 270.470, 288.461 271.076, 286.708 270.277 C 284.211 269.139, 279.758 261.576, 277.040 253.859 C 275.792 250.314, 275.087 249.330, 274.637 250.503 M 248.750 257.572 C 245.959 259.086, 244.917 263.212, 247 264.500 C 247.550 264.840, 248 266.618, 248 268.452 C 248 272.207, 249.667 273.335, 253.829 272.396 C 261.844 270.588, 264.630 267.459, 261.402 263.892 C 260.424 262.811, 259.555 261.002, 259.472 259.871 C 259.183 255.946, 253.853 254.803, 248.750 257.572 M 249.008 259.792 C 247.012 261.409, 246.951 261.714, 248.384 262.904 C 251.005 265.079, 259.195 261.742, 257.594 259.152 C 256.512 257.402, 251.499 257.776, 249.008 259.792 M 228.159 263.274 C 226.869 266.933, 226.975 267.342, 231.665 276.774 C 237.582 288.676, 237.027 288.529, 257.095 283.478 C 271.043 279.967, 274.094 278.561, 276.166 274.690 C 277.076 272.989, 276.981 272.962, 274.823 274.319 C 273.545 275.122, 265.643 277.516, 257.262 279.640 C 245.667 282.577, 241.603 283.245, 240.262 282.433 C 237.923 281.018, 230.203 266.303, 229.804 262.500 L 229.489 259.500 228.159 263.274 M 253.500 264.703 C 250.569 265.454, 249 266.995, 249 269.122 C 249 271.517, 253.776 271.684, 258.112 269.442 C 263.589 266.610, 260.090 263.014, 253.500 264.703 M 336.688 269.370 C 335.505 272.452, 335.905 274.565, 339.103 282.145 C 342.933 291.223, 345.352 294.001, 349.424 293.997 C 351.116 293.996, 358.788 292.234, 366.472 290.082 C 376.615 287.241, 380.939 285.559, 382.247 283.943 C 384.348 281.349, 383.951 280.423, 381.336 281.816 C 380.326 282.353, 373.079 284.483, 365.231 286.548 C 347.558 291.199, 347.329 291.136, 342.318 280.244 C 340.358 275.985, 338.444 271.392, 338.065 270.038 C 337.467 267.901, 337.286 267.813, 336.688 269.370 M 361.298 270.889 C 354.854 272.637, 352.322 274, 355.518 274 C 358.569 274, 369 270.803, 369 269.868 C 369 268.805, 368.958 268.810, 361.298 270.889 M 203.832 271.355 C 199.665 272.656, 197.096 274.688, 201 273.596 C 202.375 273.211, 205.141 272.641, 207.146 272.330 L 210.792 271.765 209.412 277.632 C 207.784 284.551, 207.636 286.787, 208.893 285.450 C 209.860 284.422, 212 275.124, 212 271.951 C 212 269.708, 209.655 269.537, 203.832 271.355 M 182.729 274.604 C 179.887 277.447, 187.597 296.948, 192.435 299.152 C 196.340 300.931, 226.608 293.079, 229.750 289.472 C 232.425 286.400, 232.791 284.006, 230.250 286.202 C 229.287 287.034, 225.575 288.448, 222 289.344 C 218.425 290.240, 211.675 292.032, 207 293.326 C 194.585 296.761, 193.375 296.241, 188.265 285.266 C 186.019 280.445, 184.019 275.909, 183.820 275.188 C 183.621 274.466, 183.130 274.203, 182.729 274.604 M 312.077 279.630 C 308.177 284.588, 311.536 291, 318.033 291 C 322.263 291, 324.304 289.170, 323.827 285.805 C 323.590 284.133, 322.741 283.413, 320.739 283.182 C 318.358 282.909, 317.892 283.288, 317.364 285.932 C 316.658 289.458, 314.573 289.940, 312.972 286.948 C 311.374 283.962, 312.167 280.646, 314.750 279.513 C 317.280 278.403, 317.739 277, 315.573 277 C 314.787 277, 313.214 278.183, 312.077 279.630 M 291.430 283.425 C 290.592 286.763, 297.329 303.417, 300.383 305.556 C 303.341 307.628, 304.908 307.438, 320.793 303.091 C 335.230 299.140, 337.284 298.206, 339.130 294.757 C 340.016 293.102, 339.909 292.977, 338.326 293.818 C 334.787 295.698, 310.562 302, 306.876 302 C 304.823 302, 302.505 301.362, 301.726 300.583 C 300.946 299.803, 298.610 295.191, 296.535 290.333 C 294.460 285.475, 292.612 281.334, 292.430 281.132 C 292.247 280.930, 291.797 281.961, 291.430 283.425 M 319.639 284.694 C 319.288 285.046, 319 286.438, 319 287.789 C 319 289.859, 319.236 290.049, 320.500 289 C 321.325 288.315, 322 287.162, 322 286.437 C 322 284.867, 320.542 283.791, 319.639 284.694 M 268.500 290.789 C 265.750 291.667, 263.327 292.510, 263.115 292.661 C 262.574 293.048, 265.093 298.939, 266.053 299.533 C 266.490 299.803, 268.441 299.082, 270.390 297.932 C 273.947 295.834, 276 296.007, 276 298.404 C 276 300.626, 272.472 303, 269.171 303 C 267.427 303, 266 303.508, 266 304.128 C 266 305.483, 273.723 304.475, 275.662 302.866 C 281.143 298.317, 275.170 292.391, 269.270 296.523 C 267.276 297.920, 267.008 297.884, 266.048 296.089 C 264.691 293.554, 264.727 293.001, 266.250 292.994 C 268.895 292.983, 275 290.861, 275 289.953 C 275 288.773, 274.681 288.814, 268.500 290.789 M 245.624 294.538 C 244.510 297.440, 244.948 299.667, 248.103 307.145 C 253.686 320.377, 254.976 320.843, 272.577 315.985 C 287.913 311.752, 291.610 310.244, 293.419 307.483 C 295.629 304.111, 295.481 304.016, 291.250 306.084 C 285.064 309.109, 261.347 315.125, 258.463 314.401 C 255.270 313.600, 253.834 311.445, 249.593 301.085 C 247.358 295.625, 246.041 293.451, 245.624 294.538 M 352.719 298.332 C 352.323 299.339, 352 301.437, 352 302.993 C 352 305.913, 372.816 350.034, 375.694 353.214 C 378.107 355.881, 382.905 355.411, 397.808 351.049 C 412.136 346.855, 415.438 345.256, 416.261 342.111 C 416.758 340.209, 416.654 340.181, 414.445 341.628 C 411.812 343.353, 385.727 351, 382.476 351 C 381.322 351, 379.327 350.022, 378.044 348.827 C 375.233 346.208, 354.985 304.956, 354.078 300 C 353.575 297.248, 353.284 296.892, 352.719 298.332 M 225.471 305.943 C 227.107 309.108, 226.941 309.379, 222.750 310.381 C 220.146 311.003, 220 310.851, 220 307.519 C 220 305.584, 219.550 304, 219 304 C 218.450 304, 218 306.074, 218 308.608 C 218 313.686, 217.235 313.403, 225.513 311.388 C 227.660 310.866, 228.184 311.230, 229.111 313.888 C 229.708 315.600, 230.602 317, 231.098 317 C 232.357 317, 232.345 316.954, 229.042 309.593 C 227.415 305.967, 225.603 303, 225.016 303 C 224.362 303, 224.539 304.141, 225.471 305.943 M 198.624 306.538 C 197.496 309.478, 197.956 311.510, 201.803 320.553 C 207.416 333.747, 207.184 333.695, 230.736 327.040 C 241.040 324.129, 244.783 322.625, 246.150 320.847 C 248.612 317.647, 248.453 316.667, 245.750 318.382 C 243.810 319.613, 233.010 322.728, 218.375 326.279 C 213.174 327.541, 209.460 326.632, 207.482 323.613 C 206.634 322.318, 204.434 317.580, 202.593 313.085 C 200.358 307.625, 199.041 305.451, 198.624 306.538 M 326.449 308.098 C 324.433 310.368, 324.647 310.366, 329.220 308.071 C 331.447 306.954, 332.223 306.940, 333.496 307.996 C 334.898 309.160, 334.885 309.469, 333.370 311.143 C 332.446 312.165, 331.085 313, 330.345 313 C 329.605 313, 329 313.376, 329 313.836 C 329 314.296, 330.899 314.634, 333.219 314.586 C 336.468 314.520, 337.519 314.900, 337.790 316.239 C 338.125 317.893, 337.373 318.412, 331.500 320.573 C 329.897 321.163, 329.814 321.386, 331.079 321.695 C 333.499 322.286, 337.753 320.330, 338.962 318.071 C 339.830 316.449, 339.658 315.658, 338.096 314.096 C 337.024 313.024, 336.001 310.876, 335.824 309.324 C 335.544 306.885, 335.016 306.459, 331.949 306.201 C 329.305 305.979, 327.900 306.464, 326.449 308.098 M 380.574 309 C 380.948 310.375, 381.845 312.664, 382.568 314.086 C 383.870 316.649, 383.832 316.688, 378.191 318.484 C 375.061 319.481, 373.072 320.495, 373.771 320.739 C 374.470 320.982, 376.450 320.690, 378.170 320.090 C 383.372 318.277, 384.510 318.728, 386.925 323.564 C 389.712 329.146, 390.885 328.668, 388.574 322.893 C 386.697 318.203, 386.946 317.738, 392.236 316.048 C 394.291 315.391, 396.230 314.437, 396.545 313.927 C 397.353 312.619, 395.902 312.770, 390.985 314.505 C 386.573 316.062, 384 315.319, 384 312.488 C 384 311.792, 383.076 310.159, 381.947 308.861 L 379.894 306.500 380.574 309 M 307.729 311.604 C 306.136 313.197, 307.173 318.557, 310.634 326.613 C 314.448 335.490, 315.938 337, 320.888 337 C 325.442 337, 350.832 329.462, 353.056 327.450 C 355.475 325.260, 355.586 323.557, 353.250 324.469 C 348.960 326.142, 323.941 333, 322.127 333 C 318.814 333, 315.467 328.948, 312.215 321 C 310.528 316.875, 308.992 312.909, 308.803 312.188 C 308.613 311.466, 308.130 311.203, 307.729 311.604 M 283.308 319.194 C 281.120 320.252, 279.508 322.842, 280.451 323.785 C 280.726 324.059, 281.785 323.252, 282.806 321.991 C 284.248 320.211, 285.259 319.848, 287.331 320.368 C 290.920 321.269, 290.691 323.020, 286.500 326.731 C 284.131 328.828, 283 330.701, 283 332.526 C 283 335.096, 283.174 335.190, 286.719 334.525 C 288.764 334.141, 291.801 333.187, 293.469 332.404 L 296.500 330.982 293.367 331.442 C 291.643 331.696, 289.056 332.199, 287.617 332.560 C 285.422 333.111, 285 332.881, 285 331.134 C 285 329.851, 286.105 328.480, 287.879 327.563 C 289.462 326.744, 291.036 325.350, 291.375 324.465 C 292.048 322.711, 290.467 319, 289.047 319 C 288.561 319, 287.564 318.805, 286.832 318.567 C 286.099 318.329, 284.514 318.611, 283.308 319.194 M 260.912 325.731 C 260.040 328.026, 260.479 329.960, 263.660 337.831 C 267.588 347.550, 269.683 350.017, 273.973 349.975 C 276.977 349.946, 302.643 342.797, 305.789 341.113 C 306.993 340.468, 308.689 338.568, 309.556 336.891 L 311.133 333.842 308.317 335.851 C 306.767 336.955, 298.632 339.775, 290.238 342.116 L 274.975 346.372 272.277 344.358 C 269.582 342.345, 261.641 325.390, 262.639 323.776 C 262.902 323.349, 262.855 323, 262.534 323 C 262.213 323, 261.483 324.229, 260.912 325.731 M 235.596 333.611 C 235.185 334.680, 235.414 335.055, 236.276 334.724 C 237.114 334.403, 238.317 336.110, 239.663 339.529 L 241.750 344.832 239.669 345.376 C 238.524 345.676, 237.860 346.193, 238.193 346.526 C 239.104 347.438, 247 345.078, 247 343.894 C 247 343.328, 246.132 343.141, 245.070 343.478 C 243.443 343.994, 242.795 343.143, 240.936 338.045 C 238.763 332.085, 236.805 330.460, 235.596 333.611 M 214.219 337.397 C 212.755 340.635, 212.955 341.514, 217.693 352.662 C 222.649 364.324, 222.840 364.371, 242.652 358.863 C 255.177 355.381, 258.916 353.929, 261.172 351.673 C 264.216 348.630, 265.149 345.665, 262.250 348.250 C 260.100 350.168, 233.670 358, 229.351 358 C 227.630 358, 225.339 357.212, 224.261 356.250 C 222.135 354.353, 216.269 341.040, 215.793 337.032 L 215.500 334.564 214.219 337.397 M 346.699 341.004 C 338.698 343.516, 337.634 343.967, 338.251 344.584 C 339.049 345.383, 353 340.954, 353 339.903 C 353 339.406, 352.887 339.041, 352.750 339.091 C 352.613 339.141, 349.890 340.002, 346.699 341.004 M 321.486 344.327 C 320.698 347.330, 323.832 356.622, 328.288 364.500 C 331.010 369.313, 333.290 369.808, 342.226 367.525 C 361.942 362.488, 372 358.330, 372 355.215 C 372 354.783, 365.587 356.553, 357.750 359.148 C 349.913 361.743, 341.420 364.164, 338.877 364.528 C 333.018 365.366, 331.270 363.685, 326.980 353.090 C 321.758 340.196, 322.330 341.107, 321.486 344.327 M 348 348.159 C 341.266 350.279, 340.370 350.703, 341.098 351.431 C 341.742 352.076, 355.221 348.179, 356.389 347.011 C 357.916 345.484, 355.402 345.828, 348 348.159 M 271.558 360.492 C 263.221 363.462, 258.851 369.281, 262.339 372.766 C 266.730 377.154, 284.309 371.969, 286.480 365.645 C 288.435 359.948, 280.641 357.256, 271.558 360.492 M 268.907 363.329 C 263.968 365.940, 261.465 370.417, 264.036 372.044 C 268.074 374.598, 282.320 370.586, 284.250 366.352 C 286.779 360.799, 277.247 358.922, 268.907 363.329 M 228.521 369.932 C 227.644 372.698, 236.773 393.805, 239.668 395.702 C 241.773 397.081, 243.929 396.620, 268.222 389.588 C 319.315 374.799, 316.154 375.901, 318.367 372.111 L 320.342 368.730 317.886 370.339 C 314.477 372.573, 244.065 392.962, 242.214 392.252 C 240.709 391.674, 232.679 375.552, 231.442 370.623 C 230.665 367.528, 229.381 367.224, 228.521 369.932" stroke="none" fill="#252424" fill-rule="evenodd"/><path d="M 297 144.471 C 297 144.731, 298.135 147.510, 299.523 150.648 C 300.911 153.786, 301.680 156.720, 301.233 157.167 C 300.785 157.615, 298.339 158.266, 295.797 158.614 L 291.175 159.248 290.471 153.611 C 289.385 144.921, 287.560 145.215, 288.294 153.962 C 288.629 157.963, 289.119 161.452, 289.383 161.716 C 289.817 162.150, 296.319 160.941, 301.570 159.449 C 303.345 158.945, 304.103 159.867, 306.892 165.916 C 309.977 172.610, 311.557 174.776, 312.595 173.738 C 313.277 173.056, 298.889 144, 297.870 144 C 297.391 144, 297 144.212, 297 144.471 M 272.844 151.255 C 269.664 153.943, 267.627 157.652, 268.899 158.438 C 269.397 158.745, 270.751 157.393, 271.907 155.433 C 273.625 152.521, 274.513 151.926, 276.755 152.184 C 280.596 152.626, 281.089 157.539, 277.702 161.610 C 273.039 167.214, 272.750 168.478, 274.611 175.112 C 275.548 178.451, 276.937 181.422, 277.697 181.714 C 279.018 182.221, 290.666 180.317, 292.266 179.333 C 292.688 179.074, 292.803 178.490, 292.522 178.036 C 292.072 177.307, 289.530 177.644, 281.211 179.537 C 279.330 179.965, 278.662 179.434, 277.461 176.561 C 275.363 171.541, 275.652 167.571, 278.351 164.327 C 283.471 158.172, 284.251 154.251, 281 151 C 278.407 148.407, 276.129 148.478, 272.844 151.255 M 251.607 155.582 C 250.741 157.839, 250.823 158.005, 252.492 157.365 C 253.395 157.018, 254.241 157.524, 254.637 158.646 C 255.280 160.469, 256.959 164.340, 262.502 176.780 C 265.225 182.893, 265.249 183.098, 263.400 184.498 C 261.595 185.865, 261.634 185.938, 264.185 185.968 C 265.662 185.986, 268.024 185.561, 269.435 185.025 C 272.380 183.905, 272.995 181.549, 270.103 182.467 C 268.159 183.084, 265.908 179.133, 257.449 160.250 C 254.672 154.052, 252.776 152.536, 251.607 155.582 M 234.653 169.597 C 225.581 171.918, 224.188 172.522, 225.314 173.647 C 226.013 174.346, 242.954 170.171, 244.337 168.959 C 246.282 167.256, 242.947 167.475, 234.653 169.597 M 237.250 178.832 C 232.162 180.178, 228 181.723, 228 182.265 C 228 182.820, 229.199 182.985, 230.750 182.641 C 232.262 182.306, 236.330 181.423, 239.788 180.678 C 245.822 179.378, 249.106 177.693, 247.337 176.805 C 246.877 176.574, 242.338 177.486, 237.250 178.832 M 324 198.039 C 310.220 201.440, 306 203.436, 306 206.553 C 306 210.145, 311.906 223.295, 314.622 225.750 C 315.991 226.988, 317.933 228, 318.937 228 C 321.365 228, 346.877 221.177, 349.777 219.752 C 353.601 217.873, 353.630 214.508, 349.887 206.723 C 344.977 196.509, 343.568 194.981, 339.177 195.100 C 337.155 195.156, 330.325 196.478, 324 198.039 M 280.500 209.862 C 265.169 213.916, 262.430 215.071, 261.545 217.858 C 260.784 220.257, 267.394 235.938, 270.142 238.250 C 273.084 240.726, 275.167 240.505, 291.753 235.954 C 306.515 231.904, 309 230.556, 309 226.598 C 309 222.924, 300.755 207.857, 298.217 206.892 C 295.301 205.784, 297 205.499, 280.500 209.862 M 330.500 209.051 C 327.200 210.007, 323.209 211.084, 321.632 211.443 C 320.055 211.803, 319.024 212.357, 319.342 212.675 C 319.998 213.331, 334.080 210.187, 336.112 208.931 C 338.757 207.296, 336.378 207.347, 330.500 209.051 M 284.120 222.388 C 281.813 227.277, 280.117 231.777, 280.351 232.388 C 280.916 233.866, 289.255 216.258, 288.726 214.706 C 288.499 214.043, 286.427 217.500, 284.120 222.388 M 233.092 222.002 C 222.750 224.772, 218.049 226.516, 216.434 228.181 L 214.184 230.500 218.098 239.500 C 222.177 248.881, 224.751 252.012, 228.361 251.983 C 232.563 251.949, 259.201 244.128, 261.164 242.351 C 262.730 240.935, 263.033 239.774, 262.560 237.020 C 262.227 235.084, 261.868 232.746, 261.763 231.823 C 261.658 230.901, 261.281 230.327, 260.925 230.546 C 260.570 230.766, 259.445 229.096, 258.426 226.836 C 255.572 220.506, 253.204 217.991, 250.177 218.071 C 248.705 218.110, 241.016 219.879, 233.092 222.002 M 238.682 234.577 C 236.669 240.422, 235.556 244.981, 236.194 244.769 C 236.830 244.557, 238.125 241.709, 239.072 238.442 C 240.019 235.174, 241.515 230.827, 242.397 228.782 C 244.234 224.522, 244.317 224, 243.163 224 C 242.703 224, 240.686 228.760, 238.682 234.577 M 340.269 228.523 C 324.348 232.957, 322 234.181, 322 238.048 C 322 242.351, 329.510 256.819, 332.435 258.152 C 334.349 259.025, 337.514 258.520, 348.657 255.565 C 365.691 251.047, 366.764 250.611, 368.106 247.666 C 368.992 245.721, 368.600 243.901, 365.899 237.413 C 362.095 228.275, 359.263 224.976, 355.295 225.058 C 353.758 225.091, 346.996 226.650, 340.269 228.523 M 227.500 230 C 227.943 231.397, 227.680 232, 226.626 232 C 225.797 232, 224.800 232.515, 224.410 233.145 C 223.920 233.939, 224.538 234.130, 226.424 233.770 C 228.618 233.350, 229.319 233.710, 230.047 235.625 C 230.544 236.931, 231.427 238, 232.010 238 C 232.748 238, 232.756 237.413, 232.035 236.066 C 230.473 233.148, 230.758 232.278, 233.500 231.589 C 234.875 231.244, 236 230.472, 236 229.874 C 236 229.276, 235.325 229.059, 234.500 229.393 C 233.675 229.727, 232.329 230.272, 231.508 230.604 C 230.638 230.956, 229.761 230.540, 229.401 229.604 C 228.505 227.269, 226.749 227.635, 227.500 230 M 186.500 233.581 C 179.350 235.466, 172.375 237.844, 171 238.867 C 167.849 241.210, 168.081 243.648, 172.427 253.853 C 177.276 265.239, 177.636 265.349, 195.413 260.842 C 217.028 255.363, 218.628 254.228, 215.734 246.421 C 214.789 243.871, 214.307 241.313, 214.662 240.737 C 215.018 240.162, 214.842 239.980, 214.271 240.333 C 213.699 240.686, 212.668 239.612, 211.978 237.946 C 208.193 228.808, 206.018 228.436, 186.500 233.581 M 248 234.168 C 243.917 235.321, 241.743 237, 244.332 237 C 246.357 237, 253 234.357, 253 233.551 C 253 232.860, 252.352 232.940, 248 234.168 M 346.069 236.903 C 344.200 239.528, 343.592 239.795, 341.395 238.960 C 340.006 238.432, 338.198 238, 337.376 238 C 334.834 238, 336.786 239.707, 340.081 240.366 L 343.203 240.991 341.102 244.552 C 338.742 248.552, 338.621 249, 339.901 249 C 340.397 249, 341.740 247.410, 342.887 245.467 C 344.950 241.971, 345.003 241.950, 347.936 243.467 C 351.228 245.169, 355.449 245.536, 354.524 244.039 C 354.197 243.510, 352.366 242.784, 350.454 242.425 C 346.043 241.598, 345.509 240.678, 347.594 237.497 C 349.999 233.826, 348.638 233.295, 346.069 236.903 M 303.014 238.118 C 301.647 238.664, 299.734 238.902, 298.763 238.648 C 297.792 238.394, 297.200 238.515, 297.449 238.917 C 298.102 239.975, 288.301 242.304, 286.884 241.428 C 286.084 240.934, 285.955 241.119, 286.494 241.990 C 287.098 242.968, 286.649 243.166, 284.679 242.789 C 283.239 242.514, 282.298 242.674, 282.589 243.144 C 282.880 243.615, 282.440 244, 281.611 244 C 280.781 244, 278.995 245.027, 277.640 246.283 L 275.176 248.566 276.991 253.720 C 279.754 261.565, 284.195 269.132, 286.708 270.277 C 288.462 271.076, 292.126 270.470, 303.231 267.546 C 319.241 263.330, 322.518 261.951, 323.260 259.112 C 323.946 256.489, 317.566 240.964, 314.892 238.750 C 312.577 236.834, 306.981 236.536, 303.014 238.118 M 191.500 239.386 C 187.407 241.170, 185.681 243.500, 185.784 247.104 C 185.899 251.137, 187.299 252.625, 191.646 253.330 C 194.868 253.853, 201 251.975, 201 250.466 C 201 250.200, 198.532 250.273, 195.516 250.627 C 189.189 251.371, 186.555 250.034, 187.596 246.609 C 188.579 243.374, 190.912 241.178, 194.112 240.475 C 195.710 240.124, 196.762 239.424, 196.450 238.919 C 195.722 237.742, 195.147 237.796, 191.500 239.386 M 295 245.288 C 293.446 246.070, 292.382 247.565, 292.187 249.238 C 291.931 251.440, 292.360 252.052, 294.542 252.600 C 296.193 253.014, 298.470 252.669, 300.512 251.696 C 303.733 250.159, 303.828 250.179, 304.406 252.481 C 304.732 253.779, 304.741 255.511, 304.427 256.330 C 303.653 258.346, 299.412 259.291, 296.979 257.989 C 295.439 257.165, 295 257.244, 295 258.348 C 295 260.386, 299.294 260.916, 303.039 259.342 C 306.186 258.019, 306.238 257.888, 305.796 252.557 C 305.548 249.567, 304.763 246.419, 304.050 245.561 C 302.494 243.685, 298.428 243.562, 295 245.288 M 296.163 246.528 C 292.347 248.185, 292.405 250.352, 296.278 250.812 C 301.234 251.400, 305.434 247.148, 301.418 245.607 C 300.548 245.273, 299.761 245.018, 299.668 245.039 C 299.576 245.061, 297.998 245.730, 296.163 246.528 M 246.273 252.978 C 238.998 255.035, 232.361 257.286, 231.523 257.981 C 230.685 258.676, 230.015 260.652, 230.034 262.372 C 230.074 265.996, 237.656 280.858, 240.269 282.433 C 241.622 283.250, 245.847 282.490, 258.269 279.196 C 267.196 276.829, 275.037 274.842, 275.694 274.780 C 276.351 274.718, 276.842 274.404, 276.786 274.083 C 276.729 273.762, 277.034 272.696, 277.463 271.712 C 278.596 269.116, 271.583 251.711, 268.619 249.765 C 266.375 248.292, 259.211 249.322, 246.273 252.978 M 248.750 257.572 C 245.959 259.086, 244.917 263.212, 247 264.500 C 247.550 264.840, 248 266.618, 248 268.452 C 248 272.207, 249.667 273.335, 253.829 272.396 C 261.844 270.588, 264.630 267.459, 261.402 263.892 C 260.424 262.811, 259.555 261.002, 259.472 259.871 C 259.183 255.946, 253.853 254.803, 248.750 257.572 M 354.738 259.902 C 346.455 262.172, 340.246 264.436, 339.141 265.587 C 336.963 267.856, 337.259 269.216, 342.324 280.244 C 347.327 291.137, 347.556 291.200, 365.231 286.548 C 383.593 281.716, 384.952 281.008, 384.985 276.253 C 385.003 273.607, 379.848 262.347, 376.906 258.607 C 374.169 255.128, 371.606 255.278, 354.738 259.902 M 249.008 259.792 C 247.012 261.409, 246.951 261.714, 248.384 262.904 C 251.005 265.079, 259.195 261.742, 257.594 259.152 C 256.512 257.402, 251.499 257.776, 249.008 259.792 M 202 265.067 C 187.749 269.207, 183.298 271.547, 183.808 274.634 C 183.977 275.660, 185.968 280.445, 188.232 285.266 C 193.383 296.239, 194.593 296.759, 207 293.326 C 211.675 292.032, 218.425 290.242, 222 289.347 C 230.289 287.273, 233.316 284.717, 232.404 280.564 C 231.212 275.137, 225.241 263.200, 223.162 262.087 C 219.964 260.375, 216.444 260.871, 202 265.067 M 253.500 264.703 C 250.569 265.454, 249 266.995, 249 269.122 C 249 271.517, 253.776 271.684, 258.112 269.442 C 263.589 266.610, 260.090 263.014, 253.500 264.703 M 311.500 271.877 C 296.826 276.086, 294.396 277.177, 293.515 279.953 C 292.851 282.046, 299.238 298.095, 301.726 300.583 C 304.023 302.880, 309.864 302.243, 324.558 298.090 C 342.644 292.980, 343.646 291.605, 337.993 279.641 C 334.116 271.435, 330.919 267.978, 327.298 268.074 C 325.759 268.115, 318.650 269.826, 311.500 271.877 M 361.298 270.889 C 354.854 272.637, 352.322 274, 355.518 274 C 358.569 274, 369 270.803, 369 269.868 C 369 268.805, 368.958 268.810, 361.298 270.889 M 203.832 271.355 C 199.665 272.656, 197.096 274.688, 201 273.596 C 202.375 273.211, 205.141 272.641, 207.146 272.330 L 210.792 271.765 209.412 277.632 C 207.784 284.551, 207.636 286.787, 208.893 285.450 C 209.860 284.422, 212 275.124, 212 271.951 C 212 269.708, 209.655 269.537, 203.832 271.355 M 312.077 279.630 C 308.177 284.588, 311.536 291, 318.033 291 C 322.263 291, 324.304 289.170, 323.827 285.805 C 323.590 284.133, 322.741 283.413, 320.739 283.182 C 318.358 282.909, 317.892 283.288, 317.364 285.932 C 316.658 289.458, 314.573 289.940, 312.972 286.948 C 311.374 283.962, 312.167 280.646, 314.750 279.513 C 317.280 278.403, 317.739 277, 315.573 277 C 314.787 277, 313.214 278.183, 312.077 279.630 M 265.584 284.060 C 255.816 286.617, 249.889 288.695, 248.413 290.082 C 245.839 292.500, 246.074 293.621, 251.810 306.251 C 255.997 315.472, 257.432 315.953, 270.500 312.515 C 285.748 308.504, 292.606 306.093, 294.395 304.116 C 295.840 302.519, 295.866 301.872, 294.625 298.356 C 292.138 291.307, 287.060 282.103, 285.070 281.038 C 282.452 279.636, 282.543 279.622, 265.584 284.060 M 319.639 284.694 C 319.288 285.046, 319 286.438, 319 287.789 C 319 289.859, 319.236 290.049, 320.500 289 C 321.325 288.315, 322 287.162, 322 286.437 C 322 284.867, 320.542 283.791, 319.639 284.694 M 379.500 287.574 C 376.750 288.341, 373.938 288.765, 373.250 288.516 C 372.563 288.267, 372 288.445, 372 288.913 C 372 289.961, 363.226 292.258, 362.034 291.521 C 361.559 291.228, 361.020 291.328, 360.835 291.744 C 360.651 292.160, 359.150 293.189, 357.500 294.031 C 352.108 296.783, 352.732 299.265, 365.309 325.086 C 374.214 343.369, 377.315 348.831, 379.435 349.965 C 381.883 351.276, 383.052 351.185, 391.325 349.041 C 396.371 347.733, 403.650 345.586, 407.500 344.270 C 411.350 342.954, 415.022 341.830, 415.659 341.772 C 416.340 341.710, 416.698 340.366, 416.525 338.512 C 416.179 334.784, 395.666 291.515, 392.697 288.250 C 390.337 285.654, 386.994 285.483, 379.500 287.574 M 268.500 290.789 C 265.750 291.667, 263.327 292.510, 263.115 292.661 C 262.574 293.048, 265.093 298.939, 266.053 299.533 C 266.490 299.803, 268.441 299.082, 270.390 297.932 C 273.947 295.834, 276 296.007, 276 298.404 C 276 300.626, 272.472 303, 269.171 303 C 267.427 303, 266 303.508, 266 304.128 C 266 305.483, 273.723 304.475, 275.662 302.866 C 281.143 298.317, 275.170 292.391, 269.270 296.523 C 267.276 297.920, 267.008 297.884, 266.048 296.089 C 264.691 293.554, 264.727 293.001, 266.250 292.994 C 268.895 292.983, 275 290.861, 275 289.953 C 275 288.773, 274.681 288.814, 268.500 290.789 M 219.588 296.192 C 211.386 298.378, 203.578 300.886, 202.236 301.765 C 199.126 303.802, 199.518 306.678, 204.344 317.244 C 208.650 326.672, 210.626 327.942, 218.319 326.232 C 230.312 323.566, 244.797 319.256, 247.037 317.687 C 248.361 316.759, 249.151 316, 248.792 316 C 248.433 316, 248.529 314.641, 249.006 312.981 C 249.482 311.320, 249.494 310.195, 249.033 310.480 C 247.947 311.151, 245.823 305.095, 246.666 303.731 C 247.020 303.159, 246.852 302.973, 246.294 303.318 C 245.736 303.663, 244.458 302.125, 243.455 299.900 C 241.616 295.822, 237.677 291.907, 235.615 292.109 C 235.002 292.169, 227.789 294.006, 219.588 296.192 M 337.500 299.574 C 334.750 300.341, 331.938 300.765, 331.250 300.516 C 330.563 300.267, 330 300.459, 330 300.943 C 330 301.668, 324.741 303.105, 320.500 303.540 C 318.569 303.738, 311.555 307.093, 309.854 308.632 C 307.936 310.368, 307.962 310.503, 312.232 321 C 315.443 328.891, 318.808 333, 322.061 333 C 324.376 333, 348.105 326.401, 352.714 324.475 C 357.713 322.387, 357.855 319.410, 353.408 309.935 C 349.837 302.326, 346.166 297.885, 343.615 298.089 C 343.002 298.139, 340.250 298.807, 337.500 299.574 M 225.471 305.943 C 227.107 309.108, 226.941 309.379, 222.750 310.381 C 220.146 311.003, 220 310.851, 220 307.519 C 220 305.584, 219.550 304, 219 304 C 218.450 304, 218 306.074, 218 308.608 C 218 313.686, 217.235 313.403, 225.513 311.388 C 227.660 310.866, 228.184 311.230, 229.111 313.888 C 229.708 315.600, 230.602 317, 231.098 317 C 232.357 317, 232.345 316.954, 229.042 309.593 C 227.415 305.967, 225.603 303, 225.016 303 C 224.362 303, 224.539 304.141, 225.471 305.943 M 326.449 308.098 C 324.433 310.368, 324.647 310.366, 329.220 308.071 C 331.447 306.954, 332.223 306.940, 333.496 307.996 C 334.898 309.160, 334.885 309.469, 333.370 311.143 C 332.446 312.165, 331.085 313, 330.345 313 C 329.605 313, 329 313.376, 329 313.836 C 329 314.296, 330.899 314.634, 333.219 314.586 C 336.468 314.520, 337.519 314.900, 337.790 316.239 C 338.125 317.893, 337.373 318.412, 331.500 320.573 C 329.897 321.163, 329.814 321.386, 331.079 321.695 C 333.499 322.286, 337.753 320.330, 338.962 318.071 C 339.830 316.449, 339.658 315.658, 338.096 314.096 C 337.024 313.024, 336.001 310.876, 335.824 309.324 C 335.544 306.885, 335.016 306.459, 331.949 306.201 C 329.305 305.979, 327.900 306.464, 326.449 308.098 M 380.574 309 C 380.948 310.375, 381.845 312.664, 382.568 314.086 C 383.870 316.649, 383.832 316.688, 378.191 318.484 C 375.061 319.481, 373.072 320.495, 373.771 320.739 C 374.470 320.982, 376.450 320.690, 378.170 320.090 C 383.372 318.277, 384.510 318.728, 386.925 323.564 C 389.712 329.146, 390.885 328.668, 388.574 322.893 C 386.697 318.203, 386.946 317.738, 392.236 316.048 C 394.291 315.391, 396.230 314.437, 396.545 313.927 C 397.353 312.619, 395.902 312.770, 390.985 314.505 C 386.573 316.062, 384 315.319, 384 312.488 C 384 311.792, 383.076 310.159, 381.947 308.861 L 379.894 306.500 380.574 309 M 290.500 312.184 C 287.200 313.196, 283.712 313.835, 282.749 313.605 C 281.785 313.375, 281.216 313.540, 281.482 313.972 C 282.066 314.916, 276.175 316.226, 274.897 315.437 C 274.404 315.132, 274 315.338, 274 315.896 C 274 316.453, 272.421 317.206, 270.491 317.568 C 265.452 318.513, 262.037 321.473, 262.573 324.430 C 263.529 329.701, 269.764 342.481, 272.305 344.379 L 274.957 346.358 290.611 341.969 C 306.460 337.525, 311 335.317, 311 332.055 C 311 331.064, 310.077 328.167, 308.948 325.616 C 307.820 323.064, 307.178 320.521, 307.522 319.964 C 307.867 319.406, 307.663 319.074, 307.070 319.225 C 306.476 319.376, 304.980 317.731, 303.745 315.569 C 300.880 310.552, 298.121 309.846, 290.500 312.184 M 283.308 319.194 C 281.120 320.252, 279.508 322.842, 280.451 323.785 C 280.726 324.059, 281.785 323.252, 282.806 321.991 C 284.248 320.211, 285.259 319.848, 287.331 320.368 C 290.920 321.269, 290.691 323.020, 286.500 326.731 C 284.131 328.828, 283 330.701, 283 332.526 C 283 335.096, 283.174 335.190, 286.719 334.525 C 288.764 334.141, 291.801 333.187, 293.469 332.404 L 296.500 330.982 293.367 331.442 C 291.643 331.696, 289.056 332.199, 287.617 332.560 C 285.422 333.111, 285 332.881, 285 331.134 C 285 329.851, 286.105 328.480, 287.879 327.563 C 289.462 326.744, 291.036 325.350, 291.375 324.465 C 292.048 322.711, 290.467 319, 289.047 319 C 288.561 319, 287.564 318.805, 286.832 318.567 C 286.099 318.329, 284.514 318.611, 283.308 319.194 M 243.500 324.621 C 240.750 325.376, 237.967 325.795, 237.315 325.553 C 236.663 325.311, 235.968 325.597, 235.770 326.189 C 235.573 326.782, 233.970 327.319, 232.208 327.383 C 230.446 327.447, 229.004 327.784, 229.002 328.131 C 229.001 328.478, 226.863 329.300, 224.250 329.956 C 214.949 332.294, 214.116 335.332, 219.424 347.541 C 223.201 356.226, 224.898 358, 229.431 358 C 233.690 358, 259.978 350.163, 262.577 348.118 C 264.154 346.877, 264.599 345.656, 264.271 343.468 C 264.026 341.836, 263.769 339.746, 263.699 338.823 C 263.629 337.901, 263.292 337.320, 262.949 337.531 C 262.607 337.743, 261.023 335.186, 259.428 331.849 C 255.082 322.757, 253.275 321.937, 243.500 324.621 M 341.113 333.522 C 332.650 335.900, 325.036 338.536, 324.192 339.379 C 322.880 340.692, 322.839 341.535, 323.914 345.207 C 326.184 352.969, 331.895 363.832, 334.067 364.521 C 336.771 365.380, 347.971 362.738, 360.972 358.175 C 370.930 354.680, 371.475 354.342, 372.091 351.272 C 372.517 349.148, 372.383 348.263, 371.699 348.686 C 371.069 349.075, 370.902 348.698, 371.274 347.729 C 371.611 346.849, 371.566 345.988, 371.172 345.815 C 370.779 345.642, 368.892 342.412, 366.978 338.639 C 363.473 331.724, 360.839 328.917, 358.027 329.099 C 357.187 329.154, 349.576 331.144, 341.113 333.522 M 235.596 333.611 C 235.185 334.680, 235.414 335.055, 236.276 334.724 C 237.114 334.403, 238.317 336.110, 239.663 339.529 L 241.750 344.832 239.669 345.376 C 238.524 345.676, 237.860 346.193, 238.193 346.526 C 239.104 347.438, 247 345.078, 247 343.894 C 247 343.328, 246.132 343.141, 245.070 343.478 C 243.443 343.994, 242.795 343.143, 240.936 338.045 C 238.763 332.085, 236.805 330.460, 235.596 333.611 M 346.699 341.004 C 338.698 343.516, 337.634 343.967, 338.251 344.584 C 339.049 345.383, 353 340.954, 353 339.903 C 353 339.406, 352.887 339.041, 352.750 339.091 C 352.613 339.141, 349.890 340.002, 346.699 341.004 M 298.101 344.302 C 297.658 344.744, 296.216 345.246, 294.898 345.418 C 293.579 345.590, 291.289 346.220, 289.809 346.818 C 288.328 347.416, 285.853 348.040, 284.309 348.203 C 282.764 348.366, 281.275 348.747, 281 349.048 C 280.725 349.350, 269.939 352.626, 257.031 356.330 C 241.183 360.876, 232.818 363.762, 231.271 365.216 C 230.010 366.400, 229.373 367.623, 229.855 367.934 C 230.336 368.245, 231.074 369.625, 231.494 371 C 233.222 376.656, 240.819 391.716, 242.214 392.252 C 243.659 392.806, 313.026 373.127, 316.862 371.074 C 317.893 370.522, 318.927 370.260, 319.159 370.492 C 319.391 370.725, 319.685 369.547, 319.813 367.876 C 320.120 363.841, 312.412 346.316, 309.486 344.399 C 307.184 342.890, 299.584 342.826, 298.101 344.302 M 348 348.159 C 341.266 350.279, 340.370 350.703, 341.098 351.431 C 341.742 352.076, 355.221 348.179, 356.389 347.011 C 357.916 345.484, 355.402 345.828, 348 348.159 M 271.558 360.492 C 263.221 363.462, 258.851 369.281, 262.339 372.766 C 266.730 377.154, 284.309 371.969, 286.480 365.645 C 288.435 359.948, 280.641 357.256, 271.558 360.492 M 268.907 363.329 C 263.968 365.940, 261.465 370.417, 264.036 372.044 C 268.074 374.598, 282.320 370.586, 284.250 366.352 C 286.779 360.799, 277.247 358.922, 268.907 363.329" stroke="none" fill="#e793aa" fill-rule="evenodd"/><path d="M 0 250.002 L 0 500.004 250.250 499.752 L 500.500 499.500 500.752 249.750 L 501.004 0 250.502 0 L 0 0 0 250.002 M 0.492 250.500 C 0.492 388, 0.608 444.101, 0.750 375.170 C 0.892 306.238, 0.892 193.738, 0.750 125.170 C 0.608 56.601, 0.492 113, 0.492 250.500 M 261.728 53.602 C 261.082 54.251, 261.487 65.390, 262.507 75 C 262.653 76.375, 262.823 78.513, 262.886 79.750 C 262.949 80.987, 263.483 82, 264.073 82 C 264.812 82, 264.938 78.651, 264.479 71.250 C 263.680 58.366, 262.773 52.553, 261.728 53.602 M 323.888 64.750 C 318.963 76.210, 314.958 87.509, 315.313 88.944 C 315.550 89.899, 316.361 88.955, 317.412 86.500 C 318.354 84.300, 319.736 81.150, 320.484 79.500 C 321.231 77.850, 322.957 73.575, 324.319 70 C 325.682 66.425, 327.115 62.712, 327.505 61.750 C 327.934 60.691, 327.763 60, 327.071 60 C 326.443 60, 325.010 62.138, 323.888 64.750 M 139 77.207 C 139 78.902, 154.140 104, 155.162 104 C 155.623 104, 156 103.803, 156 103.562 C 156 102.873, 149.885 91.776, 147.976 89 C 147.030 87.625, 145.066 84.138, 143.611 81.250 C 141.133 76.331, 139 74.461, 139 77.207 M 199 77.387 C 199 78.242, 200.090 81.324, 201.423 84.238 C 202.755 87.151, 204.808 92.002, 205.984 95.017 C 209.676 104.482, 211.358 108, 212.192 108 C 213.708 108, 212.999 105.649, 207.894 93.754 C 205.086 87.210, 202.474 80.681, 202.090 79.243 C 201.314 76.341, 199 74.951, 199 77.387 M 264 92.441 C 264 94.398, 264.450 96, 265 96 C 265.550 96, 266 94.677, 266 93.059 C 266 91.441, 265.550 89.840, 265 89.500 C 264.405 89.132, 264 90.323, 264 92.441 M 368.500 91.944 C 354.556 99.189, 347.996 103.185, 348.557 104.092 C 348.941 104.714, 349.621 104.745, 350.339 104.175 C 350.978 103.667, 356.554 100.692, 362.731 97.562 C 368.907 94.433, 374.202 91.482, 374.497 91.005 C 375.675 89.099, 373.243 89.479, 368.500 91.944 M 302.536 99.763 C 300.906 99.989, 279.531 105.114, 255.036 111.153 C 230.541 117.191, 187.247 127.700, 158.826 134.506 C 130.406 141.313, 105.378 147.787, 103.209 148.893 C 99.558 150.756, 99.074 151.521, 96.687 159.203 C 91.970 174.383, 91.542 176.604, 92.648 180.181 C 93.212 182.006, 119.055 240.650, 150.078 310.500 C 200.966 425.077, 206.886 437.894, 210.604 441.527 C 217.310 448.080, 212.675 448.909, 278 429.480 C 300.825 422.691, 339.750 411.226, 364.500 404.002 C 440.625 381.781, 438.260 382.624, 442.431 376.230 C 445.897 370.918, 449.286 360.352, 449.401 354.500 C 449.505 349.228, 450.036 350.250, 372.489 206.500 C 367.148 196.600, 360.966 185.125, 358.751 181 C 332.570 132.248, 319.384 108.025, 317.780 105.735 C 314.670 101.297, 308.605 98.921, 302.536 99.763 M 334.662 111.618 C 331.327 113.425, 331.677 114.370, 335.341 113.451 C 338.315 112.704, 341.142 109.974, 338.872 110.040 C 338.118 110.062, 336.223 110.772, 334.662 111.618 M 83 112.718 C 83 114.288, 109.858 135, 111.894 135 C 114.265 135, 112.650 133.289, 105.286 128 C 101.073 124.975, 94.799 120.138, 91.344 117.250 C 85.475 112.346, 83 111.002, 83 112.718 M 158 112.953 C 158 115.037, 160.399 119, 161.661 119 C 163.334 119, 163.333 118.975, 161.427 115.154 C 159.930 112.152, 158 110.913, 158 112.953 M 364.065 131.980 C 355.576 134.526, 348.463 137.111, 348.258 137.725 C 347.816 139.052, 348.500 138.907, 364.433 134.313 C 376.731 130.767, 381.950 128.645, 380.393 127.824 C 379.902 127.564, 372.554 129.435, 364.065 131.980 M 50.657 157.057 C 51.238 157.638, 54.141 158.736, 57.107 159.497 C 74.031 163.839, 78.089 164.666, 78.578 163.874 C 79.215 162.843, 76.099 161.566, 70.500 160.564 C 68.300 160.171, 63.838 158.983, 60.585 157.924 C 53.983 155.777, 48.936 155.336, 50.657 157.057 M 395 159 C 395 159.550, 395.873 160, 396.941 160 C 398.009 160, 399.160 159.550, 399.500 159 C 399.851 158.433, 399.010 158, 397.559 158 C 396.152 158, 395 158.450, 395 159 M 381 161.550 C 378.525 162.259, 374.783 162.875, 372.684 162.920 C 370.586 162.964, 367.998 163.466, 366.934 164.035 C 363.037 166.121, 365.178 166.680, 372.250 165.422 C 384.607 163.223, 387.339 162.483, 387.760 161.221 C 388.243 159.770, 387.005 159.830, 381 161.550 M 82.193 165.098 C 82.734 166.744, 89 167.632, 89 166.063 C 89 165.479, 88.438 164.994, 87.750 164.986 C 87.063 164.979, 85.427 164.686, 84.116 164.335 C 82.339 163.859, 81.850 164.053, 82.193 165.098 M 88.858 203.020 C 86.496 204.399, 71.054 207.985, 67.441 207.993 C 64.533 208, 59.944 210.341, 61.002 211.278 C 61.658 211.859, 86.708 206.637, 90.250 205.180 C 91.763 204.558, 93 203.588, 93 203.025 C 93 201.752, 91.033 201.750, 88.858 203.020 M 99.450 240.799 C 98.522 241.580, 86.229 246.933, 80.750 248.942 C 79.237 249.497, 78 250.460, 78 251.082 C 78 251.705, 78.563 251.994, 79.250 251.726 C 93.739 246.065, 102 242.264, 102 241.257 C 102 239.827, 100.851 239.620, 99.450 240.799 M 66.861 256.076 L 64.500 258.152 67 257.590 C 68.375 257.280, 69.838 257.021, 70.250 257.014 C 71.321 256.994, 71.183 254, 70.111 254 C 69.622 254, 68.159 254.934, 66.861 256.076" stroke="none" fill="#ffffff" fill-rule="evenodd"/><path d="M 289.966 122.559 C 288.217 125.617, 287.010 128.344, 287.285 128.619 C 287.921 129.255, 299.106 126.074, 300.691 124.806 C 303.080 122.895, 299.099 117, 295.418 117 C 293.710 117, 292.358 118.379, 289.966 122.559 M 283 119.462 C 280.525 120.190, 277.296 121.058, 275.825 121.393 C 273.884 121.834, 272.333 123.510, 270.171 127.500 C 266.679 133.949, 266.883 134.057, 277.517 131.385 C 284.491 129.633, 284.391 129.713, 288.370 122.750 C 291.466 117.331, 291.072 117.089, 283 119.462 M 262.214 124.434 C 254.595 125.934, 253.579 126.762, 254.945 130.355 C 256.668 134.888, 263.309 136.028, 265.608 132.186 C 266.162 131.259, 267.639 128.813, 268.890 126.750 C 271.445 122.535, 271.594 122.587, 262.214 124.434 M 94.576 166.929 C 92.807 172.698, 92.017 177.020, 92.416 178.759 C 92.761 180.267, 118.571 239.084, 149.772 309.464 C 198.840 420.150, 207.023 437.956, 210.375 441.339 L 214.249 445.249 217.117 436.295 L 219.984 427.341 215.742 422.852 C 212.305 419.214, 209.333 413.441, 200.080 392.431 C 193.799 378.169, 186.529 361.775, 183.924 356 C 181.318 350.225, 171.232 327.500, 161.508 305.500 C 151.785 283.500, 138.514 253.575, 132.018 239 C 125.522 224.425, 115.593 202.150, 109.953 189.500 C 104.314 176.850, 99.174 164.551, 98.532 162.169 L 97.365 157.839 94.576 166.929 M 447.406 359.383 C 446.369 362.087, 439.202 365.670, 428.500 368.834 C 409.814 374.359, 373.528 385.047, 366.500 387.095 C 362.650 388.218, 355 390.503, 349.500 392.175 C 344 393.846, 338.150 395.617, 336.500 396.111 C 334.850 396.604, 329.225 398.318, 324 399.919 C 312.948 403.305, 277.638 413.732, 261 418.523 C 254.675 420.344, 245 423.243, 239.500 424.966 C 233.567 426.824, 227.892 427.986, 225.547 427.822 L 221.594 427.546 218.916 436.243 C 216.390 444.442, 216.341 444.973, 218.049 445.516 C 220.502 446.294, 225.487 444.950, 277.500 429.491 C 302.250 422.134, 338.925 411.328, 359 405.477 C 441.986 381.291, 438.834 382.457, 443.178 374.325 C 446.216 368.639, 449.451 359.117, 448.625 358.292 C 448.307 357.974, 447.759 358.465, 447.406 359.383" stroke="none" fill="#f59e0b" fill-rule="evenodd"/><path d="M 261.728 53.602 C 261.082 54.251, 261.487 65.390, 262.507 75 C 262.653 76.375, 262.823 78.513, 262.886 79.750 C 262.949 80.987, 263.483 82, 264.073 82 C 264.812 82, 264.938 78.651, 264.479 71.250 C 263.680 58.366, 262.773 52.553, 261.728 53.602 M 323.888 64.750 C 318.963 76.210, 314.958 87.509, 315.313 88.944 C 315.550 89.899, 316.361 88.955, 317.412 86.500 C 318.354 84.300, 319.736 81.150, 320.484 79.500 C 321.231 77.850, 322.957 73.575, 324.319 70 C 325.682 66.425, 327.115 62.712, 327.505 61.750 C 327.934 60.691, 327.763 60, 327.071 60 C 326.443 60, 325.010 62.138, 323.888 64.750 M 139 77.207 C 139 78.902, 154.140 104, 155.162 104 C 155.623 104, 156 103.803, 156 103.562 C 156 102.873, 149.885 91.776, 147.976 89 C 147.030 87.625, 145.066 84.138, 143.611 81.250 C 141.133 76.331, 139 74.461, 139 77.207 M 199 77.387 C 199 78.242, 200.090 81.324, 201.423 84.238 C 202.755 87.151, 204.808 92.002, 205.984 95.017 C 209.676 104.482, 211.358 108, 212.192 108 C 213.708 108, 212.999 105.649, 207.894 93.754 C 205.086 87.210, 202.474 80.681, 202.090 79.243 C 201.314 76.341, 199 74.951, 199 77.387 M 264 92.441 C 264 94.398, 264.450 96, 265 96 C 265.550 96, 266 94.677, 266 93.059 C 266 91.441, 265.550 89.840, 265 89.500 C 264.405 89.132, 264 90.323, 264 92.441 M 368.500 91.944 C 354.556 99.189, 347.996 103.185, 348.557 104.092 C 348.941 104.714, 349.621 104.745, 350.339 104.175 C 350.978 103.667, 356.554 100.692, 362.731 97.562 C 368.907 94.433, 374.202 91.482, 374.497 91.005 C 375.675 89.099, 373.243 89.479, 368.500 91.944 M 302.536 99.763 C 300.906 99.989, 279.531 105.114, 255.036 111.153 C 230.541 117.191, 187.237 127.702, 158.805 134.511 C 130.373 141.320, 105.795 147.572, 104.188 148.403 C 102.094 149.486, 100.974 151.062, 100.238 153.959 C 98.950 159.035, 99.733 162.324, 104.770 173 C 106.976 177.675, 113.636 192.525, 119.572 206 C 125.507 219.475, 130.735 231.001, 131.191 231.614 C 131.794 232.425, 133.440 232.359, 137.259 231.369 C 140.142 230.623, 155.550 226.864, 171.500 223.017 C 187.450 219.169, 202.075 215.574, 204 215.026 C 205.925 214.478, 215.150 212.183, 224.500 209.925 C 242.532 205.571, 243.262 205.400, 249.500 204.096 C 251.700 203.635, 258.058 202.060, 263.629 200.595 C 269.199 199.130, 274.599 197.768, 275.629 197.567 C 276.658 197.367, 291.225 193.818, 308 189.682 C 324.775 185.546, 342.647 181.158, 347.717 179.931 C 352.786 178.705, 356.783 177.431, 356.599 177.100 C 356.416 176.770, 348.042 161.200, 337.992 142.500 C 327.941 123.800, 318.846 107.256, 317.780 105.735 C 314.670 101.297, 308.604 98.921, 302.536 99.763 M 334.662 111.618 C 331.327 113.425, 331.677 114.370, 335.341 113.451 C 338.315 112.704, 341.142 109.974, 338.872 110.040 C 338.118 110.062, 336.223 110.772, 334.662 111.618 M 83 112.718 C 83 114.288, 109.858 135, 111.894 135 C 114.265 135, 112.650 133.289, 105.286 128 C 101.073 124.975, 94.799 120.138, 91.344 117.250 C 85.475 112.346, 83 111.002, 83 112.718 M 158 112.953 C 158 115.037, 160.399 119, 161.661 119 C 163.334 119, 163.333 118.975, 161.427 115.154 C 159.930 112.152, 158 110.913, 158 112.953 M 274.500 119.702 C 264.600 122.157, 255.825 124.511, 255 124.933 C 252.748 126.087, 252.560 130.855, 254.675 133.203 C 257.667 136.525, 260.237 136.963, 267.113 135.320 C 303.533 126.616, 305.101 126.014, 302.836 121.612 C 300.758 117.572, 297.682 114.999, 295.076 115.120 C 293.659 115.185, 284.400 117.247, 274.500 119.702 M 364.065 131.980 C 355.576 134.526, 348.463 137.111, 348.258 137.725 C 347.816 139.052, 348.500 138.907, 364.433 134.313 C 376.731 130.767, 381.950 128.645, 380.393 127.824 C 379.902 127.564, 372.554 129.435, 364.065 131.980 M 252 149.054 C 220.925 156.594, 182.015 165.988, 165.534 169.931 C 149.052 173.874, 135.370 177.296, 135.130 177.537 C 134.412 178.254, 152.399 217.182, 153.685 217.693 C 154.336 217.952, 177.286 212.721, 204.685 206.068 C 232.083 199.415, 271.124 190.006, 291.443 185.158 C 311.761 180.311, 328.560 175.819, 328.775 175.176 C 329.119 174.144, 310.723 137.394, 309.126 135.923 C 308.782 135.606, 283.075 141.515, 252 149.054 M 50.657 157.057 C 51.238 157.638, 54.141 158.736, 57.107 159.497 C 74.031 163.839, 78.089 164.666, 78.578 163.874 C 79.215 162.843, 76.099 161.566, 70.500 160.564 C 68.300 160.171, 63.838 158.983, 60.585 157.924 C 53.983 155.777, 48.936 155.336, 50.657 157.057 M 395 159 C 395 159.550, 395.873 160, 396.941 160 C 398.009 160, 399.160 159.550, 399.500 159 C 399.851 158.433, 399.010 158, 397.559 158 C 396.152 158, 395 158.450, 395 159 M 381 161.550 C 378.525 162.259, 374.783 162.875, 372.684 162.920 C 370.586 162.964, 367.998 163.466, 366.934 164.035 C 363.037 166.121, 365.178 166.680, 372.250 165.422 C 384.607 163.223, 387.339 162.483, 387.760 161.221 C 388.243 159.770, 387.005 159.830, 381 161.550 M 82.193 165.098 C 82.734 166.744, 89 167.632, 89 166.063 C 89 165.479, 88.438 164.994, 87.750 164.986 C 87.063 164.979, 85.427 164.686, 84.116 164.335 C 82.339 163.859, 81.850 164.053, 82.193 165.098 M 326.500 187.204 C 311.100 191.038, 294.450 195.225, 289.500 196.507 C 280.617 198.809, 232.465 210.549, 195.500 219.425 C 185.050 221.935, 171.775 225.166, 166 226.605 C 160.225 228.044, 150.788 230.306, 145.030 231.631 C 139.271 232.957, 134.192 234.408, 133.744 234.856 C 132.978 235.622, 133.897 238.225, 138.742 249 C 139.854 251.475, 142.224 256.875, 144.006 261 C 145.789 265.125, 149.487 273.450, 152.223 279.500 C 159.367 295.293, 159.319 295.186, 165.836 310 C 169.102 317.425, 172.899 325.975, 174.273 329 C 175.646 332.025, 183.830 350.475, 192.458 370 C 213.261 417.074, 214.584 419.686, 219.372 423.154 C 221.532 424.719, 224.394 426, 225.731 426 C 227.069 426, 233.413 424.384, 239.831 422.410 C 253.824 418.105, 270.362 413.147, 274.500 412.016 C 276.150 411.565, 285.150 408.888, 294.500 406.068 C 303.850 403.248, 312.400 400.737, 313.500 400.489 C 314.600 400.241, 321.575 398.182, 329 395.913 C 336.425 393.644, 343.850 391.428, 345.500 390.989 C 347.150 390.550, 351.425 389.274, 355 388.154 C 361.160 386.224, 383.064 379.788, 395 376.401 C 398.025 375.542, 401.625 374.457, 403 373.988 C 405.407 373.168, 408.921 372.127, 428.500 366.433 C 433.450 364.993, 438.685 363.374, 440.133 362.835 C 443.267 361.668, 447.168 357.571, 448.796 353.736 C 450.193 350.447, 453.363 356.751, 407.181 271 C 389.260 237.725, 370.975 203.750, 366.549 195.500 C 360.489 184.207, 358.006 180.467, 356.500 180.366 C 355.400 180.293, 341.900 183.370, 326.500 187.204 M 324.101 198.041 C 317.832 199.603, 311.398 201.421, 309.804 202.081 C 306.522 203.441, 304.021 207.553, 303.956 211.700 C 303.912 214.493, 303.907 214.491, 301.997 210.877 C 300.944 208.885, 299.071 206.990, 297.834 206.667 C 295.331 206.012, 269.350 212.251, 264.817 214.595 C 263.226 215.417, 261.190 217.631, 260.292 219.514 C 258.897 222.439, 258.845 223.488, 259.932 226.719 C 262.372 233.970, 266.520 241.394, 269.238 243.376 L 271.977 245.373 287.729 241.161 C 296.392 238.844, 304.147 236.282, 304.961 235.468 C 305.775 234.654, 307.181 232.095, 308.086 229.781 C 309.561 226.007, 309.803 225.803, 310.436 227.798 C 310.824 229.021, 312.421 230.684, 313.985 231.492 C 316.533 232.810, 317.589 232.766, 324.164 231.066 C 349.707 224.465, 349.896 224.377, 352.018 217.945 C 353.285 214.105, 353.188 213.588, 349.923 206.798 C 344.975 196.505, 343.574 194.980, 339.177 195.100 C 337.155 195.156, 330.371 196.479, 324.101 198.041 M 88.858 203.020 C 86.496 204.399, 71.054 207.985, 67.441 207.993 C 64.533 208, 59.944 210.341, 61.002 211.278 C 61.658 211.859, 86.708 206.637, 90.250 205.180 C 91.763 204.558, 93 203.588, 93 203.025 C 93 201.752, 91.033 201.750, 88.858 203.020 M 233.156 221.985 C 211.952 227.666, 210.065 230.354, 216.647 245.508 C 222.013 257.864, 222.683 258.089, 240.184 253.417 C 247.508 251.462, 254.753 249.382, 256.284 248.796 C 260.182 247.302, 263 243.335, 263 239.340 C 263 235.997, 257.270 223.191, 254.234 219.750 C 252.092 217.322, 249.558 217.591, 233.156 221.985 M 340.269 228.523 C 323.246 233.264, 320.589 234.803, 319.431 240.595 C 318.648 244.516, 326.844 261.152, 330.346 262.748 C 332.305 263.640, 335.625 263.097, 348.127 259.836 C 356.649 257.614, 364.193 255.085, 365.054 254.163 C 365.909 253.249, 367.168 250.833, 367.852 248.796 C 368.995 245.393, 368.833 244.460, 365.856 237.308 C 362.094 228.272, 359.253 224.976, 355.295 225.058 C 353.758 225.091, 346.996 226.650, 340.269 228.523 M 186.591 233.566 C 171.850 237.462, 169.422 238.746, 167.330 243.752 C 165.877 247.229, 165.954 247.663, 169.658 256.827 C 175.072 270.222, 175.280 270.288, 195.239 264.890 C 211.788 260.413, 215 258.974, 215 256.036 C 215 254.981, 215.450 253.840, 216 253.500 C 216.550 253.160, 217 251.979, 217 250.875 C 217 248.422, 210.563 234.280, 208.316 231.797 C 206.007 229.245, 201.573 229.606, 186.591 233.566 M 292.018 241.026 C 276.919 245.296, 274 247.330, 274 253.581 C 274 257.004, 279.683 269.756, 282.766 273.250 C 284.949 275.724, 287.777 275.474, 303.559 271.411 C 318.456 267.576, 321.012 266.127, 322.725 260.544 C 323.635 257.578, 323.332 256.054, 320.389 248.818 C 314.897 235.315, 313.535 234.941, 292.018 241.026 M 99.450 240.799 C 98.522 241.580, 86.229 246.933, 80.750 248.942 C 79.237 249.497, 78 250.460, 78 251.082 C 78 251.705, 78.563 251.994, 79.250 251.726 C 93.739 246.065, 102 242.264, 102 241.257 C 102 239.827, 100.851 239.620, 99.450 240.799 M 246.219 252.993 C 232.431 256.890, 229.974 258.234, 228.019 262.954 L 226.855 265.764 224.473 263.382 C 223.099 262.008, 220.907 261, 219.294 261 C 216.204 261, 190.513 268.120, 187.195 269.896 C 180.892 273.269, 180.551 279.163, 186.028 290.057 C 191.670 301.277, 191.647 301.271, 210.322 296.552 C 218.670 294.443, 226.550 292.071, 227.834 291.281 C 230.711 289.509, 233.298 283.607, 232.482 280.677 C 232.148 279.479, 232.916 280.254, 234.187 282.398 C 235.459 284.542, 237.431 286.634, 238.569 287.049 C 239.886 287.528, 246.246 286.362, 256.069 283.842 C 278.988 277.961, 281.231 274.734, 273.658 258.539 C 271.610 254.160, 269.387 250.230, 268.718 249.804 C 266.341 248.294, 259.329 249.288, 246.219 252.993 M 66.861 256.076 L 64.500 258.152 67 257.590 C 68.375 257.280, 69.838 257.021, 70.250 257.014 C 71.321 256.994, 71.183 254, 70.111 254 C 69.622 254, 68.159 254.934, 66.861 256.076 M 354.543 259.954 C 339.124 264.180, 336.015 266.249, 335.983 272.306 L 335.966 275.500 333.881 272.243 C 332.734 270.452, 330.672 268.705, 329.300 268.360 C 326.680 267.703, 301.801 274.017, 296.779 276.614 C 294.029 278.037, 291 282.621, 291 285.362 C 291 288.220, 298.099 303.531, 300.269 305.353 C 302.473 307.204, 306.310 307.237, 313 305.465 C 315.185 304.887, 315.098 305.061, 312.314 306.848 C 305.980 310.913, 305.528 315.150, 310.270 326.010 C 314.435 335.550, 314.692 335.932, 317.707 337.079 C 319.655 337.819, 323.443 337.131, 334.567 334.015 C 342.459 331.804, 350.019 329.493, 351.367 328.878 C 354.344 327.522, 357.468 320.082, 356.450 316.772 C 356.066 315.522, 355.960 314.725, 356.215 315 C 357.074 315.928, 367.886 339, 367.461 339 C 367.230 339, 366.113 337.182, 364.980 334.960 C 361.599 328.334, 360.585 328.265, 341.953 333.389 C 324.874 338.085, 322.724 339.266, 321.360 344.704 C 320.709 347.297, 324.199 357.271, 328.288 364.500 C 330.163 367.815, 331.147 368.551, 334.035 368.796 C 338.051 369.137, 360.339 362.999, 367 359.717 C 371.493 357.504, 371.500 357.492, 371.457 352.244 C 371.426 348.432, 371.669 347.471, 372.344 348.744 C 374.525 352.865, 377.395 355, 380.752 355 C 382.624 355, 390.533 353.179, 398.328 350.954 C 414.472 346.345, 417.618 344.198, 416.682 338.428 C 416.017 334.329, 395.426 291.251, 392.697 288.250 C 390.313 285.628, 387.577 285.466, 380 287.500 C 373.094 289.354, 371.264 289.312, 376.434 287.418 C 381.989 285.384, 383.820 283.385, 384.542 278.569 C 385.058 275.127, 384.611 273.181, 382.064 267.792 C 377.607 258.358, 375.507 255.987, 371.677 256.065 C 369.930 256.100, 362.219 257.851, 354.543 259.954 M 265.500 284.061 C 252.601 287.418, 250.115 288.390, 247.750 290.998 C 244.170 294.947, 244.233 298.307, 248.053 307.285 C 253.211 319.404, 255.119 320.534, 265.815 317.794 C 269.892 316.749, 273.419 316.086, 273.652 316.319 C 273.886 316.552, 272.069 317.249, 269.615 317.867 C 265.018 319.024, 261.443 322.388, 260.402 326.535 C 259.815 328.875, 266.087 345.405, 268.507 347.896 C 269.254 348.664, 271.528 349.564, 273.562 349.896 C 276.797 350.424, 274.526 351.285, 255.422 356.771 C 225.602 365.334, 225.204 365.786, 232.505 382.781 C 237.174 393.649, 239.316 397, 241.592 397 C 242.966 397, 309.966 377.724, 314.241 376.099 C 317.583 374.828, 320 371.281, 320 367.646 C 320 363.660, 312.245 346.285, 309.656 344.472 C 308.501 343.662, 306.418 342.982, 305.027 342.960 L 302.500 342.920 305.237 341.435 C 308.257 339.796, 311 335.283, 311 331.952 C 311 329.583, 303.344 313.531, 301.474 311.979 C 299.433 310.285, 295.791 310.619, 285.664 313.430 C 280.254 314.932, 275.624 315.957, 275.375 315.709 C 275.127 315.460, 277.078 314.717, 279.712 314.057 C 288.386 311.885, 292.520 309.532, 294.317 305.745 C 295.791 302.637, 295.826 301.758, 294.608 298.307 C 292.137 291.301, 287.054 282.099, 285.070 281.038 C 282.453 279.637, 282.559 279.621, 265.500 284.061 M 340.157 291.869 C 338.932 295.960, 334.977 300, 332.198 300 C 331.356 300, 330.917 300.250, 331.223 300.556 C 331.529 300.862, 334.533 300.398, 337.899 299.526 C 344.985 297.690, 347.005 298.319, 350.050 303.314 L 351.993 306.500 351.996 302.673 C 351.999 299.780, 352.713 298.133, 354.923 295.923 C 356.531 294.315, 358.631 293, 359.590 293 C 360.549 293, 361.078 292.744, 360.765 292.432 C 360.453 292.120, 357.902 292.546, 355.096 293.379 C 348.992 295.191, 344.652 294.123, 342.658 290.317 L 341.363 287.845 340.157 291.869 M 365.500 290.538 C 361.556 291.902, 361.549 291.913, 365 291.331 C 369.079 290.643, 373.250 289.120, 371 289.140 C 370.175 289.148, 367.700 289.776, 365.500 290.538 M 220 296.082 C 203.379 300.513, 201.360 301.404, 199.415 305.165 C 197.344 309.170, 197.706 311.563, 201.813 320.989 C 206.745 332.308, 208.071 332.980, 219.719 330.059 C 224.412 328.882, 228.438 328.104, 228.664 328.331 C 228.891 328.558, 226.922 329.282, 224.288 329.940 C 221.655 330.598, 218.284 332.294, 216.799 333.709 C 212.317 337.976, 212.348 340.775, 216.996 351.373 C 222.788 364.581, 222.682 364.550, 242.825 358.934 C 254.816 355.590, 259.134 353.939, 261.199 351.909 C 265.834 347.353, 265.762 345.013, 260.660 334.460 C 255.026 322.806, 253.896 322.107, 244.513 324.460 C 237.151 326.306, 234.574 326.043, 241.041 324.106 C 245.440 322.788, 248.990 318.345, 248.996 314.147 C 249.002 310.585, 241.596 295.531, 238.914 293.652 C 236.014 291.621, 237.396 291.444, 220 296.082 M 231.500 327 C 230.239 327.542, 230.055 327.859, 231 327.859 C 231.825 327.859, 233.400 327.473, 234.500 327 C 235.761 326.458, 235.945 326.141, 235 326.141 C 234.175 326.141, 232.600 326.527, 231.500 327" stroke="none" fill="#9dd6d8" fill-rule="evenodd"/></svg>